<svg xmlns="http://www.w3.org/2000/svg" viewBox="15.50 17.00 268.00 268.00" width="300" height="300">
  <g fill-rule="nonzero">
    <path d="M0,0h300v300h-300z" fill="none"/>
    <path d="M70.97681,62.81821c-4.64839,-4.86855 -6.32007,-9.83672 -7.0021,-16.33726c-1.45459,-13.86255 9.08335,-26.88896 22.77803,-28.81318c8.07187,-1.13423 17.72051,1.9957 23.0644,8.21147c0.77754,0.90439 1.77627,2.39458 2.62441,3.06328c1.29917,0.04629 3.60996,-0.94058 4.8936,-1.40142c7.07197,-2.54561 14.29204,-4.04927 21.82632,-4.17817c1.52271,-0.02607 3.16523,-0.42993 4.75254,-0.48311c14.95562,-0.502 29.62749,0.4771 43.64751,6.10034c0.84961,0.34072 4.52197,-4.58979 5.39209,-5.16855c10.66699,-9.02065 26.88721,-8.45713 36.45703,1.96846c9.26953,9.94014 9.52881,27.41851 -0.31934,37.03755c5.66162,9.38569 9.24609,20.0146 10.57471,30.85869c0.77637,6.34292 0.53027,13.51831 0.52588,19.96494l-0.02344,30.45322l0.03076,42.2439c0.00146,12.90381 0.68115,24.77344 -2.41553,37.45752c-5.74658,22.89551 -20.26758,42.6123 -40.42676,54.89355c-24.79834,14.86084 -53.09004,17.71875 -80.14512,7.1748c-16.40903,-6.30762 -30.58213,-17.3335 -40.73086,-31.6875c-9.62798,-13.3916 -15.35039,-28.87939 -16.25098,-45.27393c-0.05024,-0.91553 -0.26777,-1.83984 -0.3334,-2.78027c-0.19746,-1.19238 -0.02388,-6.67676 -0.03267,-8.36719l-0.03765,-15.9082c-0.01436,-2.05078 -0.15762,-7.4751 0.08364,-9.18018c0.02109,-1.62451 -0.0063,-3.30908 -0.00835,-4.93945c-0.34995,-2.78906 -0.00762,-8.03027 -0.05933,-11.03174c-0.09639,-5.60596 0.01333,-11.27505 0.00762,-16.87515c-0.06504,-7.79033 -0.06855,-15.5811 -0.0104,-23.37144c-0.00498,-2.52832 -0.22559,-9.01099 0.06504,-11.20386c0.01084,-2.25483 0.34512,-4.37974 0.37441,-6.5915c0.11895,-8.97642 2.66499,-17.36602 5.89937,-25.65996c0.64438,-1.6522 1.57676,-3.26353 2.29951,-4.88335c0.87568,-1.80703 2.24517,-3.34893 2.49902,-5.29233z" fill="#000000"/>
    <path d="M59.90156,167.72754c-0.34995,-2.78906 -0.00762,-8.03027 -0.05933,-11.03174c-0.09639,-5.60596 0.01333,-11.27505 0.00762,-16.87515c-0.06504,-7.79033 -0.06855,-15.5811 -0.0104,-23.37144c-0.00498,-2.52832 -0.22559,-9.01099 0.06504,-11.20386c0.20171,2.08579 -0.1062,4.42236 0.08364,6.35449c0.44531,4.52959 0.51284,8.25088 -0.01069,12.77813c-0.24976,2.15874 0.00059,5.40015 -0.03325,7.67241c-0.05039,3.37896 0.88667,7.12178 0.30425,10.54131c-0.71338,4.42734 -0.01553,8.61094 0.14546,13.03184c0.05742,1.57471 -0.34556,3.31934 -0.44634,4.92773c-0.1418,2.26172 0.23027,4.97021 -0.046,7.17627z" fill="#3e3e3e"/>
    <path d="M59.90991,172.66699c0.19204,2.13867 -0.15146,4.70947 0.08789,6.69141c0.66709,5.51807 0.12363,10.8457 0.3479,16.36523c0.0769,1.89111 0.01758,3.7998 0.00557,5.69092c-0.0252,1.62012 -0.43169,3.08496 -0.45469,4.70801c-0.19746,-1.19238 -0.02388,-6.67676 -0.03267,-8.36719l-0.03765,-15.9082c-0.01436,-2.05078 -0.15762,-7.4751 0.08364,-9.18018z" fill="#3e3e3e"/>
    <path d="M114.57905,35.93481c10.43467,-3.69126 20.69956,-6.16582 31.87148,-6.07646c-0.00396,8.5459 -0.12056,17.3877 0.01113,25.90767c-4.46836,2.62837 -4.71255,5.14644 -4.67871,9.87612c0.04717,6.61846 0.03428,13.25376 0.00117,19.87354c-0.00776,1.53237 -0.01787,3.11572 0.50244,4.58218c2.93979,8.28457 15.72173,6.70503 15.92681,-2.40322c0.0293,-1.26753 0.00586,-2.5188 0.00293,-3.76802l-0.00146,-7.45972l0.01025,-8.99517c0.00293,-5.31079 0.69287,-8.66938 -4.54687,-11.68154l-0.01318,-25.9125c9.71777,-0.08657 22.74463,2.32192 31.75049,6.08481c14.55322,5.76548 27.16553,15.40254 35.8667,28.48477c0.88916,1.33726 3.104,4.60459 3.59326,6.0041c9.29443,16.86416 8.03906,33.06665 8.04053,51.47432l-0.00146,31.58262c-2.23975,0.27979 -4.81055,0.2915 -7.15283,0.55518c-6.66943,0.76758 -13.20996,2.39795 -19.45752,4.8501c-5.2251,2.13867 -10.23779,4.76514 -14.96924,7.8457c-3.31348,2.13428 -6.55811,4.47949 -9.89795,6.5332c-8.61914,5.2998 -17.15479,8.40381 -27.26953,9.08203c-13.1688,0.88184 -25.05806,-2.39795 -36.19497,-9.47754c-4.25552,-2.70557 -8.38799,-5.79639 -12.72612,-8.31299c-12.11147,-7.02539 -24.13286,-10.72119 -38.16768,-10.94531l-0.0252,-28.88437c-0.00454,-16.27529 -1.246,-32.446 5.08755,-47.75142c0.75103,-1.81509 2.0521,-5.00405 3.08042,-6.58022c0.44414,-1.41313 2.97671,-5.16401 3.83833,-6.45132c8.77339,-13.10903 21.0895,-21.99888 35.51924,-28.03652z" fill="#ffffff"/>
    <path d="M75.22148,70.42266c0.44414,-1.41313 2.97671,-5.16401 3.83833,-6.45132c8.77339,-13.10903 21.0895,-21.99888 35.51924,-28.03652c5.23374,13.60049 8.94272,27.08159 11.99385,41.32705c3.51738,16.2917 6.173,32.90874 5.91299,49.62158c-0.08247,5.30215 -0.26294,12.63838 -2.41567,17.49521c-3.78867,8.5481 -13.37637,-3.36182 -16.07373,-6.71191c-15.09785,-18.75059 -26.70439,-40.39365 -36.47285,-62.31533c-0.34629,-0.77695 -1.78901,-4.56694 -2.30215,-4.92876z" fill="#696968"/>
    <path d="M114.89648,98.9978c6.61992,-0.29648 12.23496,4.81216 12.56353,11.43047c0.32871,6.61846 -4.75269,12.25825 -11.36938,12.61904c-6.66226,0.36328 -12.34951,-4.76089 -12.68042,-11.42476c-0.33091,-6.66401 4.8208,-12.32622 11.48628,-12.62476z" fill="#000000"/>
    <path d="M117.29473,103.03198c1.35776,-0.46685 2.86187,-0.16479 3.93428,0.78984c1.07227,0.95479 1.54629,2.41377 1.2397,3.8165c-0.30659,1.40259 -1.34604,2.53081 -2.71904,2.95107c-2.07319,0.63457 -4.27236,-0.50991 -4.94224,-2.57197c-0.66987,-2.06206 0.43696,-4.28057 2.4873,-4.98545z" fill="#ffffff"/>
    <path d="M185.41553,35.9625c14.55322,5.76548 27.16553,15.40254 35.8667,28.48477c0.88916,1.33726 3.104,4.60459 3.59326,6.0041c-0.47461,0.32754 -2.20752,4.77847 -2.58984,5.63789c-2.67041,5.9792 -5.47412,11.89819 -8.4082,17.75229c-2.86816,5.53169 -5.89307,10.98149 -9.06885,16.34297c-5.729,9.72202 -11.97656,19.4332 -19.229,28.09351c-2.57812,3.03794 -5.3877,6.3167 -8.86377,8.33232c-2.32471,1.34619 -5.47119,0.73389 -6.55371,-1.8731c-2.25732,-5.43721 -2.53857,-11.95752 -2.59131,-17.77588c-0.15527,-16.7499 2.354,-33.20376 5.896,-49.523c2.26611,-10.92217 5.17236,-21.70151 8.7041,-32.28237l0.10986,-0.4106z" fill="#696968"/>
    <path d="M182.28076,44.74541c0.59912,0.8127 0.67236,3.21753 0.17285,4.08662c-0.01611,-0.89165 -0.10986,-2.8396 -0.28271,-3.67603z" fill="#5b5b5b"/>
    <path d="M184.29492,98.98022c6.646,-0.18662 12.18311,5.05444 12.36035,11.70044c0.17725,6.646 -5.07275,12.1749 -11.71875,12.34277c-6.63281,0.16758 -12.14795,-5.06865 -12.3252,-11.70146c-0.17725,-6.63267 5.05225,-12.15542 11.68359,-12.34175z" fill="#000000"/>
    <path d="M186.98145,102.87905c2.1416,-0.40942 4.21582,0.97603 4.65967,3.11162c0.44238,2.13574 -0.91113,4.23149 -3.03955,4.70742c-1.40625,0.3145 -2.87402,-0.15352 -3.83789,-1.22461c-0.96533,-1.07109 -1.27734,-2.57886 -0.81738,-3.94497c0.4585,-1.36626 1.61865,-2.37876 3.03516,-2.64946z" fill="#ffffff"/>
    <path d="M222.67822,70.38823l0.2373,0.23848c0.1582,0.95317 0.05566,1.83706 -0.00586,2.80063c-0.44238,-0.49204 -0.25488,-2.31064 -0.23145,-3.03911z" fill="#5b5b5b"/>
    <path d="M147.24756,149.17969c4.36523,-0.64893 11.81104,0.52148 15.51855,2.90332c7.42822,4.77246 3.28564,12.58447 -2.80078,16.00635c-2.88867,1.62451 -4.1748,1.92773 -7.41797,2.52979c-4.83545,0.58447 -9.70444,-0.50977 -13.64927,-3.36475c-2.59878,-1.88086 -5.02529,-4.41504 -5.47749,-7.72412c-0.24302,-1.90723 0.29692,-3.83057 1.49663,-5.33203c2.76064,-3.49512 8.17075,-4.56299 12.33032,-5.01855z" fill="#000000"/>
    <path d="M66.9479,160.81348c18.04131,0.08936 32.11714,7.69336 46.41255,17.77002c1.29272,0.91113 3.1355,1.81201 4.52856,2.63232c18.26748,10.75928 42.0895,11.39063 61.00649,1.89111c6.10107,-3.06299 11.8623,-7.17187 17.55908,-10.93945c10.13379,-6.61523 24.33838,-11.48145 36.52295,-11.35107c-0.22119,10.73877 0.09814,21.71045 -0.03516,32.47266c-0.07324,6.01318 0.23291,11.75391 -0.41602,17.7627c-2.12256,19.20117 -10.92773,37.04443 -24.87451,50.40967c-16.08398,15.44092 -37.66406,23.82715 -59.95459,23.30273c-2.99663,-0.06299 -7.93066,-0.45996 -10.83999,-1.10596c-1.35366,-0.14795 -2.58691,-0.43506 -3.91348,-0.7207c-23.05488,-5.47852 -41.37729,-17.87695 -53.91313,-38.18408c-6.89663,-11.32031 -10.96318,-24.13623 -11.85498,-37.3623c-0.35654,-5.44922 -0.12686,-11.39355 -0.17944,-16.90869c-0.09404,-9.84814 0.12744,-19.82959 -0.04834,-29.66895z" fill="#f84979"/>
    <path d="M132.9438,282.9375c1.06436,-0.69434 3.25532,-0.40137 3.91348,0.7207c-1.35366,-0.14795 -2.58691,-0.43506 -3.91348,-0.7207z" fill="#d54375"/>
    <path d="M209.80225,24.52749c3.93164,0.075 7.13086,0.90088 10.44727,3.12012c4.49707,2.96733 7.59229,7.6374 8.57227,12.93486c1.16895,6.25313 -0.58008,10.95396 -4.03271,16.03301c-1.62891,-2.04639 -3.3252,-4.03901 -5.08447,-5.97451c-7.45166,-8.04932 -15.40576,-13.68677 -25.13379,-18.60015c0.23291,-0.26528 0.46729,-0.52837 0.70459,-0.7894c4.18506,-4.5895 8.43164,-6.45659 14.52686,-6.72393z" fill="#ffffff"/>
    <path d="M90.1623,24.52954c6.25635,0.01948 11.21968,2.62075 15.17256,7.41372c-2.129,1.32378 -4.55127,2.5563 -6.76831,3.88594c-7.24043,4.34268 -12.37983,8.68418 -18.11206,14.76094c-1.89243,2.03071 -3.4355,3.91113 -5.18481,6.07295c-2.52407,-3.5896 -4.09512,-6.86953 -4.33931,-11.32441c-0.30366,-5.31372 1.54966,-10.52505 5.14028,-14.45405c3.93765,-4.30635 8.37905,-6.08818 14.09165,-6.35508z" fill="#ffffff"/>
  </g>
</svg>