<svg version="1.1" id="Layer_1" xmlns="http://www.w3.org/2000/svg" xmlns:xlink="http://www.w3.org/1999/xlink" x="0px" y="0px" width="100%" viewBox="0 0 1024 1024" enable-background="new 0 0 1024 1024" xml:space="preserve">
<path fill="#FDFDFD" opacity="1.000000" stroke="none" d="
M470.000000,1.000008 
	C499.354218,1.000000 528.708435,1.000000 558.232910,1.376559 
	C559.773621,2.135298 561.121399,2.671683 562.517883,2.876861 
	C589.461487,6.835462 616.671204,9.489841 643.299500,14.971263 
	C686.288208,23.820459 727.031372,39.033733 762.848022,63.954460 
	C772.051819,57.671211 781.079407,51.647537 789.960693,45.415295 
	C806.830200,33.577473 825.885864,27.529476 846.015320,24.986835 
	C865.291748,22.551937 884.562683,23.333933 903.440674,28.553423 
	C927.264648,35.140415 947.771240,46.954468 961.981934,67.718834 
	C981.576843,96.350594 984.753418,128.313324 979.359863,161.583893 
	C974.145569,193.748962 959.326294,221.694046 940.023987,247.471863 
	C938.129089,250.002396 937.927063,251.592712 939.825562,254.295547 
	C974.894226,304.221130 999.189209,358.977295 1012.720703,418.458557 
	C1023.367981,465.261475 1025.826538,512.373535 1017.564575,559.865173 
	C1007.693665,616.605347 985.608154,668.256104 952.713196,715.333313 
	C914.679810,769.764282 864.885132,811.049316 807.759644,844.041626 
	C770.001953,865.848206 729.866089,882.403259 689.321960,898.118774 
	C656.009216,911.031189 623.948181,926.344299 594.852905,947.470215 
	C566.526489,968.037781 541.606262,992.283936 517.397339,1017.365662 
	C515.945374,1018.870056 514.365356,1020.250854 513.175598,1021.376343 
	C503.459229,1011.906372 494.141205,1002.862305 484.864410,993.776184 
	C449.712921,959.347534 410.982880,929.934204 365.486023,910.455078 
	C337.494049,898.470459 308.923492,887.842163 280.867096,876.002014 
	C227.514130,853.486450 178.414886,823.883301 135.647949,784.664673 
	C68.839638,723.399353 23.158941,649.981445 7.792787,559.290649 
	C2.663510,529.017761 1.440133,498.768097 4.594747,468.331268 
	C5.848925,456.230560 8.055848,444.221893 10.033883,432.205048 
	C11.524810,423.147552 12.777966,413.992126 15.154390,405.153839 
	C18.234003,393.700287 21.971735,382.388885 26.065714,371.251343 
	C31.668842,356.008118 37.152069,340.648651 44.019382,325.962189 
	C51.138584,310.737000 59.606766,296.117676 67.949745,281.498627 
	C73.308990,272.107819 79.597168,263.250519 85.226471,254.006393 
	C85.996407,252.742035 86.031395,250.197693 85.258362,248.967606 
	C81.540192,243.051102 77.199852,237.524979 73.492943,231.602081 
	C50.493732,194.854095 36.266327,155.931641 43.984264,111.589561 
	C46.503242,97.117226 51.294662,83.693993 59.796108,71.529305 
	C72.807732,52.911015 89.721405,39.641273 111.124100,31.970598 
	C132.114349,24.447746 153.434540,22.552193 175.573151,25.846630 
	C199.780960,29.448986 221.777817,38.037457 241.783112,51.905212 
	C248.051804,56.250694 253.978394,61.089649 260.065582,65.699081 
	C262.665833,64.331306 265.490509,63.276356 267.821899,61.553764 
	C285.324036,48.622150 304.963959,39.849716 325.099213,32.108932 
	C345.844818,24.133497 367.092010,17.766027 389.035431,14.010585 
	C407.750824,10.807581 426.491669,7.734742 445.267792,4.914058 
	C452.756439,3.789060 460.374786,3.541312 467.919373,2.753126 
	C468.665833,2.675146 469.308929,1.608035 470.000000,1.000008 
M660.974060,749.662476 
	C628.061768,761.432190 594.454407,763.906921 560.123413,757.393494 
	C558.401001,757.066711 556.192017,757.747925 554.578979,758.633057 
	C526.631897,773.968201 498.623932,773.509644 470.388397,759.416992 
	C468.195984,758.322815 465.254089,757.830261 462.842743,758.211121 
	C431.572388,763.150879 400.777557,761.948608 370.573151,751.772583 
	C368.929291,751.218750 367.099762,751.216064 365.356659,750.956848 
	C368.201965,754.109985 371.196411,756.455994 374.279572,758.679016 
	C405.908447,781.484802 441.938751,792.816406 480.027771,797.766113 
	C497.368958,800.019592 515.008240,801.111694 532.599060,798.940125 
	C537.544678,798.329651 542.658325,798.807556 547.525818,797.889709 
	C560.007629,795.536255 572.536499,793.199463 584.774841,789.860474 
	C594.734863,787.143127 604.428772,783.295776 614.009705,779.383789 
	C625.464294,774.706787 636.340576,768.902283 646.882141,762.290527 
	C652.538818,758.742798 657.960815,755.351929 662.553528,750.157410 
	C662.799500,749.940308 663.045410,749.723206 663.291321,749.506165 
	C662.773315,749.586487 662.255310,749.666809 660.974060,749.662476 
M634.706299,533.787231 
	C626.536804,521.240234 618.367310,508.693237 610.133972,496.048218 
	C611.780029,508.149597 613.464783,520.536133 615.149597,532.922668 
	C612.404297,531.127075 610.517517,528.916626 608.805847,526.577881 
	C588.053528,498.222565 579.950989,465.522339 577.016235,431.319885 
	C575.313354,411.473724 574.990540,391.541748 577.890747,371.643250 
	C580.019775,357.035614 581.113464,342.278381 582.752380,327.597168 
	C583.225586,323.358307 583.894836,319.135193 584.638550,314.933929 
	C586.373596,305.133423 588.341858,295.372620 589.965820,285.554443 
	C591.651306,275.364532 592.832092,265.089081 594.615723,254.918030 
	C596.873535,242.042542 599.653442,229.259033 601.948486,216.389526 
	C603.608093,207.083511 604.797363,197.694504 606.291321,188.357681 
	C606.966125,184.139877 607.821960,179.948746 608.682922,175.763474 
	C610.424744,167.296280 612.257202,158.847687 613.994568,150.379593 
	C615.769714,141.727402 617.238892,133.004715 619.280090,124.417015 
	C621.226318,116.229019 624.110657,108.256981 625.908691,100.042503 
	C628.332581,88.968880 632.609253,78.749977 638.512878,69.166832 
	C638.979248,68.409897 640.498047,68.301308 642.304138,67.582344 
	C641.394226,77.750458 640.575562,86.898399 639.756897,96.046341 
	C640.147644,96.243935 640.538452,96.441528 640.929199,96.639114 
	C644.893005,92.018318 648.520020,87.042686 652.912354,82.873276 
	C657.611328,78.412727 662.773193,74.300293 668.251526,70.862030 
	C670.803955,69.260078 675.029297,68.385231 677.694702,69.363991 
	C681.523010,70.769798 679.734314,74.783249 678.689392,77.697197 
	C655.156250,143.327026 641.580811,211.399277 629.083557,279.735474 
	C627.944580,285.963440 627.018127,292.230255 625.992981,298.479034 
	C631.147522,292.459534 634.894958,285.695831 639.827698,279.949677 
	C652.208069,265.527863 665.815308,252.376770 683.251160,244.014053 
	C689.129639,241.194565 693.223022,237.357925 694.052490,230.474426 
	C695.167847,221.217712 695.963684,211.839645 698.131653,202.810196 
	C702.426636,184.922745 706.573975,166.887558 712.684387,149.585144 
	C717.282104,136.566055 724.607117,124.466225 731.186035,112.208382 
	C734.740601,105.585457 739.276978,99.489449 743.481445,92.984009 
	C742.076050,92.145279 740.971252,91.432068 739.818909,90.806160 
	C716.314575,78.039177 691.695312,67.980431 665.888000,60.971085 
	C601.804749,43.565895 536.635925,37.089596 470.369385,41.907749 
	C425.332825,45.182289 381.064148,52.790203 338.256317,67.258049 
	C318.646851,73.885498 299.756439,82.640602 279.830322,90.718468 
	C313.295135,134.684280 326.600464,184.376282 333.057129,236.791565 
	C331.735260,236.987396 330.682434,237.143356 328.760834,237.428040 
	C358.626129,251.348282 381.753998,271.425873 398.450500,298.880035 
	C398.779388,297.650208 398.715607,296.826569 398.560760,296.020386 
	C394.699524,275.915985 391.180908,255.737747 386.879883,235.727707 
	C379.787842,202.732712 372.803284,169.692184 364.576599,136.971786 
	C359.517090,116.848595 352.113617,97.320808 346.095856,77.424881 
	C345.335358,74.910629 345.627075,70.678116 347.222778,69.265907 
	C348.664795,67.989677 353.310577,68.484818 355.239777,69.934219 
	C362.767120,75.589447 369.903351,81.792854 376.915680,88.092255 
	C379.668884,90.565544 381.713776,93.827301 384.942810,97.786308 
	C384.187683,86.331825 383.525269,76.283783 382.862854,66.235741 
	C383.524017,66.040985 384.185150,65.846222 384.846283,65.651459 
	C387.917328,71.648003 391.994385,77.346634 393.874634,83.695831 
	C400.010681,104.416130 406.596558,125.129326 410.730255,146.290482 
	C419.571777,191.551666 427.105408,237.071091 434.946686,282.524109 
	C441.573822,320.939087 447.997406,359.385559 449.454376,398.465118 
	C450.666260,430.971100 446.745911,462.662109 434.890961,493.101624 
	C429.247803,507.591370 420.943024,520.521912 409.942566,531.950012 
	C411.502167,521.012329 413.061798,510.074615 414.621429,499.136932 
	C414.104034,498.995911 413.586670,498.854919 413.069275,498.713898 
	C403.494781,521.391052 386.499176,538.353394 370.037140,555.795105 
	C362.507843,563.772461 355.223450,572.096008 348.766022,580.946899 
	C333.838196,601.407898 325.518982,624.480225 323.229797,650.897827 
	C332.013947,650.897827 340.404694,650.897827 348.795441,650.897827 
	C348.905365,651.382812 349.015289,651.867798 349.125214,652.352783 
	C340.892914,654.535522 332.660614,656.718262 323.538666,659.136902 
	C324.528137,665.354065 325.608978,672.145264 326.902466,680.272522 
	C339.636627,677.757690 351.702118,675.374939 363.767578,672.992188 
	C354.344757,682.072815 342.801910,685.799072 330.680359,688.187744 
	C335.396881,700.177795 339.714081,703.076721 351.786743,702.311340 
	C355.102875,702.101074 358.399902,701.556763 361.698059,701.109619 
	C363.179901,700.908691 364.635712,700.517395 366.116913,700.309326 
	C367.424133,700.125793 368.750244,700.076721 370.068024,699.968262 
	C370.240875,700.608032 370.413757,701.247742 370.586639,701.887512 
	C362.824646,704.877380 355.062653,707.867249 346.674988,711.098083 
	C350.845581,714.212402 354.901428,717.935791 359.559631,720.609863 
	C398.381622,742.895508 438.819153,743.651001 480.312256,729.236938 
	C490.651611,725.645142 500.907104,722.204102 512.164612,721.986572 
	C526.259460,721.714172 538.684692,727.260681 551.651672,731.245300 
	C587.491760,742.258423 622.720276,742.187134 656.603516,724.147400 
	C663.453247,720.500488 670.855652,717.354309 675.495972,710.216553 
	C659.051880,705.612366 656.425476,704.463013 652.021851,699.792419 
	C655.871826,700.282227 659.309021,700.760193 662.756470,701.146973 
	C666.393799,701.554993 670.048645,701.810852 673.682190,702.247253 
	C684.401062,703.534607 689.606201,697.630981 692.493103,688.326111 
	C679.600647,686.762024 667.603455,683.135986 657.154358,673.158752 
	C658.842651,673.158752 659.453003,673.059570 660.020630,673.173340 
	C671.191528,675.412476 682.336609,677.793335 693.551758,679.779724 
	C694.883972,680.015564 697.642151,678.389343 697.950562,677.172791 
	C699.495544,671.078613 700.444641,664.833313 701.656189,658.358521 
	C691.359070,657.481018 682.160217,656.448181 674.153503,651.006897 
	C681.308472,650.364136 688.392700,649.933533 695.391174,650.522278 
	C699.731384,650.887451 702.884460,648.978394 701.962891,644.998535 
	C701.231812,641.841125 700.270752,638.732971 699.632874,635.558533 
	C694.061096,607.830688 680.571289,584.256958 661.811218,563.468445 
	C652.992981,553.696777 644.031799,544.054016 634.706299,533.787231 
M838.588623,585.140808 
	C843.254150,582.855469 847.890503,580.507935 852.593323,578.302063 
	C857.461365,576.018799 862.350647,573.769531 867.310547,571.696899 
	C872.142944,569.677673 877.084534,567.921143 881.963440,566.011719 
	C886.939209,564.064453 891.852600,561.948181 896.875732,560.134216 
	C901.587341,558.432739 906.406677,557.029968 911.178650,555.495850 
	C911.395996,556.036072 911.613281,556.576294 911.830566,557.116516 
	C909.710999,558.638184 907.658020,560.264160 905.461975,561.666199 
	C848.289612,598.167847 792.548584,636.736572 738.318726,677.481262 
	C736.908630,678.540771 735.509888,680.448730 735.282288,682.121094 
	C732.716431,700.973938 725.738892,718.165710 715.414917,733.944214 
	C690.335022,772.274414 654.822632,797.181091 612.045959,811.891846 
	C595.675171,817.521790 578.566406,821.005737 561.981201,825.417786 
	C577.276917,836.758362 593.171204,848.542786 609.581909,860.710083 
	C610.484436,853.608093 610.891968,847.326294 612.154297,841.221252 
	C613.862610,832.959473 615.741394,824.663940 618.511475,816.719238 
	C619.929321,812.652893 625.977539,811.076599 629.729126,812.455994 
	C634.137451,814.076721 634.162903,817.725891 633.918884,821.555542 
	C633.378479,830.036133 632.893127,838.520386 632.429321,847.005615 
	C631.724548,859.901001 631.057190,872.798401 630.360107,885.955566 
	C633.128113,885.101807 635.530151,884.545593 637.788696,883.633728 
	C650.238098,878.607483 662.636597,873.455078 675.082886,868.420898 
	C690.652039,862.123474 706.516235,856.477600 721.761597,849.479614 
	C736.927917,842.517944 751.662659,834.548218 766.256348,826.426880 
	C779.008301,819.330505 791.439331,811.625610 803.744446,803.770264 
	C811.134033,799.052917 818.090576,793.637817 825.098450,788.346497 
	C835.592529,780.422974 846.466980,772.902283 856.271118,764.188171 
	C873.817749,748.592407 890.395691,731.952454 904.293640,712.893372 
	C912.953125,701.018127 922.414490,689.577637 929.733032,676.911865 
	C939.148499,660.616821 947.033020,643.409790 955.062195,626.353333 
	C958.750793,618.517578 961.195496,610.098083 964.239014,601.956238 
	C965.998108,597.250427 968.054871,592.642395 969.562988,587.859619 
	C971.283142,582.404297 972.731323,576.844604 973.944519,571.253662 
	C975.020874,566.293457 975.584290,561.223267 976.425964,556.210388 
	C978.266907,545.246765 981.113708,534.349487 981.802734,523.315918 
	C983.345947,498.604706 981.622559,474.037323 977.291992,449.549744 
	C970.677734,412.148529 959.321472,376.264832 944.938904,341.239410 
	C943.222961,337.060608 941.231262,332.995087 938.768860,327.554535 
	C938.070618,335.257935 937.684753,341.353149 936.942200,347.404633 
	C932.692200,382.040558 921.599731,414.050720 901.161804,442.695374 
	C877.111084,476.403503 845.671692,501.311798 809.642151,520.881226 
	C786.566650,533.414734 761.773315,541.708984 736.994873,550.071289 
	C725.708984,553.880127 714.709595,558.537598 702.779968,563.117371 
	C724.187012,588.911804 734.160095,617.955139 736.055359,650.433533 
	C738.787170,648.890991 741.066833,647.915588 742.982788,646.461243 
	C748.010681,642.644714 752.657349,638.293640 757.855042,634.739197 
	C772.688843,624.595337 787.477783,614.348022 802.755554,604.903564 
	C814.132202,597.870728 826.242554,592.024902 838.588623,585.140808 
M154.240479,570.205139 
	C202.606918,590.448547 246.656601,618.062195 288.890381,650.156067 
	C291.313843,617.527954 301.026550,588.689514 321.968262,562.689697 
	C307.351440,557.426025 294.248657,552.114563 280.787262,547.966919 
	C233.037430,533.254456 189.610855,511.262604 152.878372,476.577545 
	C113.937813,439.807434 92.023682,395.301056 87.973839,341.930359 
	C87.643906,337.582397 86.868004,333.268219 86.145744,327.768951 
	C84.941269,330.366852 84.224365,331.838165 83.569565,333.336578 
	C70.941849,362.232513 60.731808,391.961121 53.389076,422.628479 
	C46.029327,453.366943 40.914875,484.501770 43.349407,516.188354 
	C48.244438,579.899414 69.847694,637.910889 105.797592,690.501038 
	C139.806396,740.251648 184.048843,779.275208 234.934601,811.064697 
	C273.618713,835.231628 314.493286,854.866150 357.386078,870.356812 
	C369.875153,874.867188 382.246948,879.702454 395.565491,884.725525 
	C395.243073,880.660583 394.913055,877.216980 394.705780,873.765930 
	C393.670959,856.536255 392.715179,839.301636 391.623810,822.075684 
	C391.325043,817.360596 393.375946,813.675659 397.500336,812.470337 
	C401.678345,811.249329 405.484100,813.751526 407.334167,817.661133 
	C409.019623,821.222900 410.282593,825.129395 410.914459,829.016785 
	C412.565857,839.176697 413.770020,849.409302 415.331573,860.934326 
	C419.650085,857.673645 423.453033,854.850037 427.204041,851.959045 
	C433.196960,847.339966 439.110535,842.616821 445.141571,838.048462 
	C450.762695,833.790527 456.493256,829.677124 462.316742,825.396423 
	C461.614502,824.919861 461.366516,824.641235 461.068939,824.570068 
	C460.100555,824.338379 459.116791,824.166748 458.134125,824.000000 
	C417.184021,817.052551 379.670746,802.279602 347.263428,775.674072 
	C316.946045,750.784363 294.964264,720.861389 289.126526,680.961975 
	C288.963654,679.848938 288.059204,678.563843 287.120117,677.886047 
	C265.103882,661.996338 243.353745,645.710449 220.902252,630.457642 
	C186.187805,606.874084 150.984161,584.010681 116.000931,560.822266 
	C113.802933,559.365356 111.716721,557.739807 109.578506,556.192688 
	C109.949371,555.487732 110.320236,554.782776 110.691101,554.077820 
	C124.969704,559.362671 139.248306,564.647522 154.240479,570.205139 
M670.593018,434.127014 
	C659.556580,454.004578 652.462341,475.268158 649.479004,497.740204 
	C648.424255,505.685333 647.432129,514.571167 649.913208,521.830627 
	C653.463440,532.218323 662.686157,539.264099 671.025269,546.425537 
	C681.773499,537.181763 693.237976,530.296021 706.261353,525.919678 
	C720.238708,521.222717 734.070374,516.089783 747.944275,511.087677 
	C765.430054,504.783234 781.719116,495.951508 797.163879,485.831024 
	C808.806763,478.201752 819.944214,469.571747 830.292542,460.260101 
	C840.807495,450.798431 850.437988,440.269501 859.774963,429.611450 
	C866.423889,422.021790 872.627197,413.855530 877.831360,405.224304 
	C889.433350,385.981934 899.355225,365.849152 905.583801,344.135468 
	C907.645691,336.947540 909.019775,329.562317 910.708252,322.267273 
	C896.138977,335.702087 881.538147,348.137390 864.275635,357.155762 
	C846.960022,366.201874 828.539917,371.338928 809.184998,372.612915 
	C806.587646,406.299286 790.421997,430.368195 759.520630,442.561249 
	C728.221069,454.911316 700.552917,447.267029 677.589661,422.423309 
	C675.227600,426.353271 673.085632,429.917053 670.593018,434.127014 
M233.466705,423.024719 
	C220.128220,408.971313 214.020920,391.945374 213.200653,372.457367 
	C193.623093,371.689575 175.647079,366.131836 158.542511,357.410583 
	C141.489853,348.715851 127.316566,336.388550 114.165405,322.496094 
	C115.553268,329.888062 116.968239,337.101654 119.287537,344.011749 
	C148.750656,431.793549 208.975632,488.500916 295.796631,518.148254 
	C316.296143,525.148315 337.003204,531.618225 353.002045,547.717529 
	C355.269958,546.357727 357.772430,545.484802 359.385498,543.773621 
	C364.453735,538.397034 369.182526,532.700745 374.052795,527.137024 
	C376.758362,524.046265 378.191803,520.630432 378.091827,516.351257 
	C377.631836,496.666595 372.389923,478.062134 365.544098,459.830322 
	C360.629181,446.740906 353.970337,434.545349 346.559174,423.497040 
	C340.058167,428.485657 334.301453,433.892212 327.669830,437.822571 
	C297.293976,455.825378 260.577942,450.048096 233.466705,423.024719 
M752.619263,282.054291 
	C748.755737,283.061218 744.860962,283.962036 741.033630,285.091522 
	C704.237061,295.950409 672.886414,314.630371 652.889771,348.572357 
	C635.160156,378.666077 628.727478,411.710632 629.551453,446.344788 
	C629.666870,451.199860 630.281799,456.043060 630.747559,461.927063 
	C631.946594,460.520447 632.357727,460.213440 632.534912,459.804932 
	C639.038574,444.813690 644.808716,429.453094 652.169922,414.896912 
	C663.616577,392.262024 678.891968,372.701385 699.743286,357.433777 
	C718.056152,344.024841 738.488892,338.332367 760.487183,337.373993 
	C772.053711,336.870148 783.696106,338.132599 795.305176,338.571503 
	C821.660156,339.567932 847.889648,340.103333 872.582214,328.167542 
	C888.093628,320.669617 900.977234,310.260315 911.972107,295.836304 
	C860.257263,272.705933 807.374512,271.591248 752.619263,282.054291 
M297.389740,344.072174 
	C305.275085,347.948059 313.673553,351.045013 320.953033,355.840515 
	C346.548828,372.702240 364.328125,396.482422 377.747192,423.563873 
	C383.985687,436.153931 388.780396,449.459412 394.214600,462.404877 
	C394.761963,459.604187 395.755463,456.430817 395.950256,453.209137 
	C397.081329,434.502045 395.269531,416.091339 390.991974,397.797546 
	C379.148956,347.148651 349.465515,311.947449 300.994843,292.876740 
	C254.266830,274.491669 206.115479,271.793823 157.095978,280.742371 
	C141.341614,283.618378 126.416290,289.259521 111.758141,296.535126 
	C112.687378,297.936554 113.310051,299.096252 114.135452,300.087097 
	C124.973099,313.097137 137.999283,323.247192 153.596924,329.953583 
	C172.039261,337.883118 191.485428,339.490601 211.273117,339.059998 
	C231.028259,338.630096 250.806168,337.738129 270.535675,338.329742 
	C279.273102,338.591675 287.915894,342.008270 297.389740,344.072174 
M111.485153,245.030457 
	C107.670326,252.413345 103.855499,259.796234 100.040672,267.179138 
	C100.579376,267.663177 101.118088,268.147217 101.656799,268.631256 
	C116.189438,258.547791 129.493011,246.671570 145.944305,239.436722 
	C162.697311,232.069214 179.908142,226.896057 197.908524,223.960953 
	C216.268311,220.967255 234.742538,218.925812 253.271744,220.873459 
	C271.625641,222.802673 289.856049,225.907013 308.546143,228.553345 
	C300.071991,184.273438 286.046631,141.703766 254.541382,106.677231 
	C194.847275,140.170578 147.668152,186.391190 111.485153,245.030457 
M733.972290,165.517670 
	C725.784973,186.241989 719.954956,207.596771 716.216858,229.822418 
	C791.428894,210.588043 860.882141,219.122375 922.976624,268.190887 
	C889.897766,197.557205 836.617859,146.263840 770.589600,106.969666 
	C755.446411,124.526062 742.975586,143.489212 733.972290,165.517670 
M603.973633,901.491089 
	C606.586060,899.713623 609.198486,897.936096 612.090271,895.968567 
	C597.830261,884.901672 584.028503,874.448608 570.517761,863.632080 
	C557.153015,852.932434 544.099060,841.845154 530.845093,831.005798 
	C529.936401,830.262634 528.498474,829.836182 527.302307,829.827087 
	C517.641541,829.753296 507.978973,829.759766 498.319153,829.897949 
	C496.963409,829.917297 495.375061,830.471252 494.306458,831.305603 
	C469.633087,850.569763 445.020599,869.911865 420.384338,889.223633 
	C417.800903,891.248779 415.140045,893.174988 412.119110,895.444641 
	C450.996002,915.810852 483.325256,943.585876 513.536621,975.057922 
	C515.995117,972.233826 518.072876,969.557922 520.441895,967.171204 
	C540.642700,946.819092 561.873230,927.657715 585.906555,911.860107 
	C591.483215,908.194458 597.529175,905.242798 603.973633,901.491089 
M180.481110,61.967342 
	C167.717880,58.796837 154.784988,57.851608 141.813080,60.029686 
	C104.669930,66.266281 77.270660,89.163727 77.941406,133.249924 
	C78.449654,166.656357 92.589378,194.860672 112.240234,222.250488 
	C115.730507,217.028870 118.985916,212.420471 121.877808,207.594269 
	C122.407539,206.710220 121.699715,204.833984 121.153053,203.596970 
	C118.000130,196.462296 114.340889,189.528320 111.564774,182.254745 
	C104.540749,163.851501 98.811043,145.262222 103.936852,125.103401 
	C106.347282,115.623650 110.565773,107.212845 117.297684,100.361534 
	C124.304970,93.229965 132.755066,88.720558 142.639725,85.597839 
	C153.835007,82.061073 164.567429,82.194519 175.340622,84.729370 
	C186.524933,87.360954 196.825317,92.566162 205.876495,99.834023 
	C211.940048,104.702896 217.812653,109.809540 223.817719,114.849243 
	C230.999146,110.483528 238.248688,106.076408 245.555634,101.634392 
	C230.246780,84.537445 205.708237,69.506691 180.481110,61.967342 
M867.300415,58.312222 
	C830.677490,57.833160 802.219116,74.593216 777.742737,100.630188 
	C785.210266,105.137718 792.440918,109.502304 800.061951,114.102493 
	C802.015625,112.337044 804.104980,110.526199 806.109070,108.625412 
	C818.940674,96.455498 833.384521,87.671364 851.041626,83.747398 
	C865.536438,80.526192 879.079834,82.008789 892.073608,88.189148 
	C916.297180,99.710922 927.418884,123.440704 922.529053,151.533295 
	C919.287109,170.158310 911.750366,187.134537 902.882812,203.634628 
	C902.129883,205.035645 901.295715,207.366882 901.925781,208.370255 
	C904.783142,212.920715 908.152466,217.149673 911.930359,222.303223 
	C917.384827,213.781967 922.270630,205.854233 927.450439,198.123428 
	C935.984802,185.385925 940.586914,170.947357 943.665894,156.323730 
	C946.012207,145.179779 946.881287,133.604263 945.128540,121.850700 
	C941.678711,98.716377 930.989258,80.930717 910.315796,69.523239 
	C897.217407,62.295605 883.081543,58.950195 867.300415,58.312222 
M280.287903,390.131134 
	C280.216614,391.453278 279.900909,392.817047 280.117615,394.090179 
	C280.931702,398.873016 283.524292,402.958344 288.214325,403.824127 
	C292.006073,404.524109 296.815338,404.246155 300.038910,402.410248 
	C304.686218,399.763550 305.835815,393.290588 304.123169,388.547150 
	C302.441528,383.889709 298.226288,380.921661 293.037415,380.741455 
	C286.964478,380.530487 283.348694,383.029388 280.287903,390.131134 
M714.057739,395.844543 
	C716.320740,401.347870 722.856873,406.514130 726.889465,405.986938 
	C732.579773,405.243011 737.541992,400.162354 738.032776,394.577515 
	C738.712158,386.845978 733.716919,380.834656 726.511292,380.712402 
	C718.333801,380.573639 713.542908,386.016998 714.057739,395.844543 
M613.498901,378.933899 
	C613.068787,383.741638 612.477539,388.541931 612.254700,393.359253 
	C612.040710,397.985107 612.208496,402.628571 612.208496,407.264313 
	C616.927612,385.629761 621.962952,364.187103 632.116089,343.623596 
	C626.751221,343.059784 622.715820,342.635681 618.131348,342.153839 
	C616.606750,354.340149 615.124451,366.188110 613.498901,378.933899 
M395.161102,346.429169 
	C401.271301,364.907135 407.381500,383.385101 412.734100,399.571991 
	C413.041565,386.914124 408.441040,348.830566 405.352173,341.950134 
	C402.291473,342.325378 399.158386,342.588287 396.093933,343.196991 
	C395.542450,343.306519 395.273956,344.840515 395.161102,346.429169 
M100.066544,268.408081 
	C100.289131,268.478180 100.511726,268.548248 100.734322,268.618347 
	C100.659691,268.406219 100.585068,268.194092 100.066544,268.408081 
z" data-index="0" style="opacity: 1;"></path>

<path fill="#020202" opacity="1.000000" stroke="none" d="
M634.920898,534.070068 
	C644.031799,544.054016 652.992981,553.696777 661.811218,563.468445 
	C680.571289,584.256958 694.061096,607.830688 699.632874,635.558533 
	C700.270752,638.732971 701.231812,641.841125 701.962891,644.998535 
	C702.884460,648.978394 699.731384,650.887451 695.391174,650.522278 
	C688.392700,649.933533 681.308472,650.364136 674.153503,651.006897 
	C682.160217,656.448181 691.359070,657.481018 701.656189,658.358521 
	C700.444641,664.833313 699.495544,671.078613 697.950562,677.172791 
	C697.642151,678.389343 694.883972,680.015564 693.551758,679.779724 
	C682.336609,677.793335 671.191528,675.412476 660.020630,673.173340 
	C659.453003,673.059570 658.842651,673.158752 657.154358,673.158752 
	C667.603455,683.135986 679.600647,686.762024 692.493103,688.326111 
	C689.606201,697.630981 684.401062,703.534607 673.682190,702.247253 
	C670.048645,701.810852 666.393799,701.554993 662.756470,701.146973 
	C659.309021,700.760193 655.871826,700.282227 652.021851,699.792419 
	C656.425476,704.463013 659.051880,705.612366 675.495972,710.216553 
	C670.855652,717.354309 663.453247,720.500488 656.603516,724.147400 
	C622.720276,742.187134 587.491760,742.258423 551.651672,731.245300 
	C538.684692,727.260681 526.259460,721.714172 512.164612,721.986572 
	C500.907104,722.204102 490.651611,725.645142 480.312256,729.236938 
	C438.819153,743.651001 398.381622,742.895508 359.559631,720.609863 
	C354.901428,717.935791 350.845581,714.212402 346.674988,711.098083 
	C355.062653,707.867249 362.824646,704.877380 370.586639,701.887512 
	C370.413757,701.247742 370.240875,700.608032 370.068024,699.968262 
	C368.750244,700.076721 367.424133,700.125793 366.116913,700.309326 
	C364.635712,700.517395 363.179901,700.908691 361.698059,701.109619 
	C358.399902,701.556763 355.102875,702.101074 351.786743,702.311340 
	C339.714081,703.076721 335.396881,700.177795 330.680359,688.187744 
	C342.801910,685.799072 354.344757,682.072815 363.767578,672.992188 
	C351.702118,675.374939 339.636627,677.757690 326.902466,680.272522 
	C325.608978,672.145264 324.528137,665.354065 323.538666,659.136902 
	C332.660614,656.718262 340.892914,654.535522 349.125214,652.352783 
	C349.015289,651.867798 348.905365,651.382812 348.795441,650.897827 
	C340.404694,650.897827 332.013947,650.897827 323.229797,650.897827 
	C325.518982,624.480225 333.838196,601.407898 348.766022,580.946899 
	C355.223450,572.096008 362.507843,563.772461 370.037140,555.795105 
	C386.499176,538.353394 403.494781,521.391052 413.069275,498.713898 
	C413.586670,498.854919 414.104034,498.995911 414.621429,499.136932 
	C413.061798,510.074615 411.502167,521.012329 409.942566,531.950012 
	C420.943024,520.521912 429.247803,507.591370 434.890961,493.101624 
	C446.745911,462.662109 450.666260,430.971100 449.454376,398.465118 
	C447.997406,359.385559 441.573822,320.939087 434.946686,282.524109 
	C427.105408,237.071091 419.571777,191.551666 410.730255,146.290482 
	C406.596558,125.129326 400.010681,104.416130 393.874634,83.695831 
	C391.994385,77.346634 387.917328,71.648003 384.846283,65.651459 
	C384.185150,65.846222 383.524017,66.040985 382.862854,66.235741 
	C383.525269,76.283783 384.187683,86.331825 384.942810,97.786308 
	C381.713776,93.827301 379.668884,90.565544 376.915680,88.092255 
	C369.903351,81.792854 362.767120,75.589447 355.239777,69.934219 
	C353.310577,68.484818 348.664795,67.989677 347.222778,69.265907 
	C345.627075,70.678116 345.335358,74.910629 346.095856,77.424881 
	C352.113617,97.320808 359.517090,116.848595 364.576599,136.971786 
	C372.803284,169.692184 379.787842,202.732712 386.879883,235.727707 
	C391.180908,255.737747 394.699524,275.915985 398.560760,296.020386 
	C398.715607,296.826569 398.779388,297.650208 398.450500,298.880035 
	C381.753998,271.425873 358.626129,251.348282 328.760834,237.428040 
	C330.682434,237.143356 331.735260,236.987396 333.057129,236.791565 
	C326.600464,184.376282 313.295135,134.684280 279.830322,90.718468 
	C299.756439,82.640602 318.646851,73.885498 338.256317,67.258049 
	C381.064148,52.790203 425.332825,45.182289 470.369385,41.907749 
	C536.635925,37.089596 601.804749,43.565895 665.888000,60.971085 
	C691.695312,67.980431 716.314575,78.039177 739.818909,90.806160 
	C740.971252,91.432068 742.076050,92.145279 743.481445,92.984009 
	C739.276978,99.489449 734.740601,105.585457 731.186035,112.208382 
	C724.607117,124.466225 717.282104,136.566055 712.684387,149.585144 
	C706.573975,166.887558 702.426636,184.922745 698.131653,202.810196 
	C695.963684,211.839645 695.167847,221.217712 694.052490,230.474426 
	C693.223022,237.357925 689.129639,241.194565 683.251160,244.014053 
	C665.815308,252.376770 652.208069,265.527863 639.827698,279.949677 
	C634.894958,285.695831 631.147522,292.459534 625.992981,298.479034 
	C627.018127,292.230255 627.944580,285.963440 629.083557,279.735474 
	C641.580811,211.399277 655.156250,143.327026 678.689392,77.697197 
	C679.734314,74.783249 681.523010,70.769798 677.694702,69.363991 
	C675.029297,68.385231 670.803955,69.260078 668.251526,70.862030 
	C662.773193,74.300293 657.611328,78.412727 652.912354,82.873276 
	C648.520020,87.042686 644.893005,92.018318 640.929199,96.639114 
	C640.538452,96.441528 640.147644,96.243935 639.756897,96.046341 
	C640.575562,86.898399 641.394226,77.750458 642.304138,67.582344 
	C640.498047,68.301308 638.979248,68.409897 638.512878,69.166832 
	C632.609253,78.749977 628.332581,88.968880 625.908691,100.042503 
	C624.110657,108.256981 621.226318,116.229019 619.280090,124.417015 
	C617.238892,133.004715 615.769714,141.727402 613.994568,150.379593 
	C612.257202,158.847687 610.424744,167.296280 608.682922,175.763474 
	C607.821960,179.948746 606.966125,184.139877 606.291321,188.357681 
	C604.797363,197.694504 603.608093,207.083511 601.948486,216.389526 
	C599.653442,229.259033 596.873535,242.042542 594.615723,254.918030 
	C592.832092,265.089081 591.651306,275.364532 589.965820,285.554443 
	C588.341858,295.372620 586.373596,305.133423 584.638550,314.933929 
	C583.894836,319.135193 583.225586,323.358307 582.752380,327.597168 
	C581.113464,342.278381 580.019775,357.035614 577.890747,371.643250 
	C574.990540,391.541748 575.313354,411.473724 577.016235,431.319885 
	C579.950989,465.522339 588.053528,498.222565 608.805847,526.577881 
	C610.517517,528.916626 612.404297,531.127075 615.149597,532.922668 
	C613.464783,520.536133 611.780029,508.149597 610.133972,496.048218 
	C618.367310,508.693237 626.536804,521.240234 634.920898,534.070068 
M513.500000,540.037964 
	C495.625671,539.787415 477.863708,540.590149 460.209900,543.906311 
	C446.916565,546.403320 434.419098,550.298401 423.041901,557.944763 
	C406.061646,569.356812 396.829742,585.446594 394.286987,605.233521 
	C391.805328,624.544678 397.081329,642.224243 410.447662,656.438232 
	C439.952332,687.814087 476.421692,706.185425 519.660767,703.347656 
	C558.537659,700.796265 592.169006,683.305969 616.633118,652.091614 
	C634.438782,629.372925 636.134460,603.849670 621.742188,578.634827 
	C610.277710,558.549438 590.993469,548.829895 569.046448,544.182495 
	C551.084656,540.378967 532.813293,539.705139 513.500000,540.037964 
M493.034760,393.439240 
	C493.372955,396.884552 493.712738,400.329742 494.049072,403.775238 
	C495.367401,417.281647 496.408478,430.822845 498.100647,444.282227 
	C499.203705,453.055878 504.984314,457.404633 513.427490,456.970001 
	C521.525818,456.553101 527.191956,451.000763 528.014099,442.654724 
	C528.373169,439.009399 528.723267,435.362915 529.036743,431.713440 
	C532.869751,387.084259 536.740723,342.458221 540.506592,297.823364 
	C542.998596,268.286713 545.372742,238.739929 547.716980,209.191132 
	C548.241028,202.585678 545.711792,200.011642 539.166809,200.005203 
	C524.842163,199.991104 510.517548,200.012665 496.192902,199.993866 
	C492.085541,199.988464 487.970734,199.716629 483.873108,199.890991 
	C479.665344,200.070023 477.718231,202.588730 478.012390,206.755417 
	C478.653076,215.831497 479.302643,224.907288 480.019440,233.977585 
	C481.324097,250.486435 482.657410,266.993103 484.021545,283.497131 
	C485.320190,299.208344 486.705688,314.912445 487.994934,330.624390 
	C489.687561,351.252106 491.323334,371.884460 493.034760,393.439240 
M505.499939,172.824570 
	C516.499146,172.839447 527.498840,172.921631 538.497375,172.841339 
	C544.148865,172.800079 546.961426,170.514053 547.261719,165.437881 
	C548.619690,142.482971 549.897888,119.522720 551.044739,96.556404 
	C551.341858,90.605957 549.002441,88.083549 543.097473,87.250420 
	C541.135437,86.973602 539.106140,87.106087 537.109863,87.151360 
	C525.372192,87.417557 513.636230,87.860443 501.897705,87.939430 
	C495.658875,87.981415 489.417786,87.226982 483.174377,87.164970 
	C476.410156,87.097771 473.830200,89.660278 474.087891,96.437546 
	C474.959045,119.350487 475.986877,142.257706 477.030579,165.163666 
	C477.259277,170.182281 479.893036,172.740677 485.002502,172.851089 
	C491.498444,172.991470 498.000519,172.846848 505.499939,172.824570 
z" data-index="2" style="opacity: 1; visibility: visible;"></path>
<path fill="#020202" opacity="1.000000" stroke="none" d="
M838.307373,585.395630 
	C826.242554,592.024902 814.132202,597.870728 802.755554,604.903564 
	C787.477783,614.348022 772.688843,624.595337 757.855042,634.739197 
	C752.657349,638.293640 748.010681,642.644714 742.982788,646.461243 
	C741.066833,647.915588 738.787170,648.890991 736.055359,650.433533 
	C734.160095,617.955139 724.187012,588.911804 702.779968,563.117371 
	C714.709595,558.537598 725.708984,553.880127 736.994873,550.071289 
	C761.773315,541.708984 786.566650,533.414734 809.642151,520.881226 
	C845.671692,501.311798 877.111084,476.403503 901.161804,442.695374 
	C921.599731,414.050720 932.692200,382.040558 936.942200,347.404633 
	C937.684753,341.353149 938.070618,335.257935 938.768860,327.554535 
	C941.231262,332.995087 943.222961,337.060608 944.938904,341.239410 
	C959.321472,376.264832 970.677734,412.148529 977.291992,449.549744 
	C981.622559,474.037323 983.345947,498.604706 981.802734,523.315918 
	C981.113708,534.349487 978.266907,545.246765 976.425964,556.210388 
	C975.584290,561.223267 975.020874,566.293457 973.944519,571.253662 
	C972.731323,576.844604 971.283142,582.404297 969.562988,587.859619 
	C968.054871,592.642395 965.998108,597.250427 964.239014,601.956238 
	C961.195496,610.098083 958.750793,618.517578 955.062195,626.353333 
	C947.033020,643.409790 939.148499,660.616821 929.733032,676.911865 
	C922.414490,689.577637 912.953125,701.018127 904.293640,712.893372 
	C890.395691,731.952454 873.817749,748.592407 856.271118,764.188171 
	C846.466980,772.902283 835.592529,780.422974 825.098450,788.346497 
	C818.090576,793.637817 811.134033,799.052917 803.744446,803.770264 
	C791.439331,811.625610 779.008301,819.330505 766.256348,826.426880 
	C751.662659,834.548218 736.927917,842.517944 721.761597,849.479614 
	C706.516235,856.477600 690.652039,862.123474 675.082886,868.420898 
	C662.636597,873.455078 650.238098,878.607483 637.788696,883.633728 
	C635.530151,884.545593 633.128113,885.101807 630.360107,885.955566 
	C631.057190,872.798401 631.724548,859.901001 632.429321,847.005615 
	C632.893127,838.520386 633.378479,830.036133 633.918884,821.555542 
	C634.162903,817.725891 634.137451,814.076721 629.729126,812.455994 
	C625.977539,811.076599 619.929321,812.652893 618.511475,816.719238 
	C615.741394,824.663940 613.862610,832.959473 612.154297,841.221252 
	C610.891968,847.326294 610.484436,853.608093 609.581909,860.710083 
	C593.171204,848.542786 577.276917,836.758362 561.981201,825.417786 
	C578.566406,821.005737 595.675171,817.521790 612.045959,811.891846 
	C654.822632,797.181091 690.335022,772.274414 715.414917,733.944214 
	C725.738892,718.165710 732.716431,700.973938 735.282288,682.121094 
	C735.509888,680.448730 736.908630,678.540771 738.318726,677.481262 
	C792.548584,636.736572 848.289612,598.167847 905.461975,561.666199 
	C907.658020,560.264160 909.710999,558.638184 911.830566,557.116516 
	C911.613281,556.576294 911.395996,556.036072 911.178650,555.495850 
	C906.406677,557.029968 901.587341,558.432739 896.875732,560.134216 
	C891.852600,561.948181 886.939209,564.064453 881.963440,566.011719 
	C877.084534,567.921143 872.142944,569.677673 867.310547,571.696899 
	C862.350647,573.769531 857.461365,576.018799 852.593323,578.302063 
	C847.890503,580.507935 843.254150,582.855469 838.307373,585.395630 
M778.564697,782.346008 
	C784.938477,781.604248 787.276245,779.146301 787.991638,772.342285 
	C788.913818,763.571716 789.825989,754.799927 790.699890,746.024475 
	C791.887146,734.103149 793.174805,722.189270 794.137024,710.249390 
	C794.594299,704.574707 792.454346,702.562988 786.829590,702.848511 
	C783.359375,703.024597 779.887390,703.525024 776.460632,704.131104 
	C765.723450,706.030396 754.956909,707.821899 744.319336,710.184387 
	C741.730103,710.759338 738.009949,711.204407 737.890991,715.857849 
	C737.774475,720.420898 740.468018,722.011963 743.864624,723.264893 
	C746.352844,724.182739 748.901184,725.043457 751.497070,725.542664 
	C757.505249,726.698181 763.558533,727.618896 769.105835,728.552734 
	C769.105835,735.813354 769.105835,742.842407 769.105835,750.618408 
	C766.243103,748.875061 764.415466,747.770813 762.596313,746.652649 
	C753.247864,740.906372 744.085083,734.825623 734.496338,729.513550 
	C726.915710,725.313965 720.839050,728.358032 718.417236,736.656921 
	C716.871277,741.954590 718.117004,745.465088 723.858154,749.249512 
	C738.440674,758.861938 753.131104,768.313416 767.888000,777.656128 
	C770.925598,779.579224 774.440369,780.748718 778.564697,782.346008 
M810.380981,654.640808 
	C798.844360,657.070312 788.191528,661.588623 778.363220,668.096863 
	C770.917114,673.027710 763.839050,678.327515 759.145081,686.400085 
	C761.697388,686.196777 764.026550,685.588867 766.297119,684.810181 
	C794.271362,675.216431 822.172241,675.095642 849.839233,685.842651 
	C861.456726,690.355347 872.758606,695.678772 884.363281,700.227234 
	C887.791016,701.570679 891.836670,702.300171 895.470276,701.954834 
	C902.934937,701.245361 906.183838,693.637024 901.946533,687.421509 
	C900.280701,684.977905 898.091614,682.825500 895.879883,680.829712 
	C871.729126,659.036499 843.672485,649.658569 810.380981,654.640808 
M884.614380,616.894409 
	C898.793884,620.434631 912.943848,624.099731 927.165466,627.461670 
	C934.103394,629.101807 937.333130,625.665833 935.001770,619.012878 
	C930.335510,605.696655 925.403625,592.469238 920.328064,579.302795 
	C918.227295,573.853027 915.500366,573.153625 910.729126,576.635437 
	C904.492065,581.186890 898.512268,586.089050 892.364197,590.764587 
	C886.361389,595.329590 880.172058,599.658569 874.317322,604.402954 
	C872.712646,605.703308 871.146973,608.138367 871.180359,610.024109 
	C871.206360,611.489380 873.503357,613.432556 875.223694,614.229919 
	C877.895203,615.468262 880.934570,615.912903 884.614380,616.894409 
M754.748352,598.747559 
	C760.223999,602.818848 765.594788,607.041992 771.205322,610.918030 
	C776.648438,614.678406 780.237000,613.068542 780.748230,606.650391 
	C781.937622,591.718140 783.007263,576.774597 783.928467,561.823547 
	C784.280884,556.104553 781.570435,554.195557 776.181946,556.198303 
	C771.492249,557.941223 766.981018,560.158997 762.317444,561.978577 
	C753.189026,565.540222 743.916565,568.748535 734.882568,572.530457 
	C728.490784,575.206360 728.172485,578.919983 733.708252,583.165710 
	C740.442810,588.330750 747.355103,593.264038 754.748352,598.747559 
M714.605835,786.499817 
	C714.691345,780.019592 714.997437,773.530701 714.740784,767.064026 
	C714.652893,764.849915 713.700012,761.569885 712.150879,760.816895 
	C710.532288,760.030273 707.403564,761.199646 705.497314,762.403931 
	C701.934692,764.654602 698.821777,767.605835 695.444824,770.164062 
	C687.466919,776.208130 679.494446,782.261719 671.417297,788.171448 
	C667.490967,791.044189 667.293823,794.804016 671.628845,797.594971 
	C682.379456,804.516113 693.182068,811.369629 704.166504,817.909851 
	C711.157776,822.072571 714.600708,819.754883 714.606018,811.429810 
	C714.611145,803.453186 714.602844,795.476501 714.605835,786.499817 
M853.685608,536.817810 
	C850.358032,534.615356 847.083435,532.327332 843.691345,530.229126 
	C837.641846,526.487183 834.705139,528.003235 834.531433,535.116455 
	C834.242920,546.930420 834.128418,558.749146 834.009338,570.566528 
	C833.952148,576.243713 835.671570,577.519043 840.938904,574.963745 
	C852.007324,569.594360 862.968323,563.989990 873.825012,558.203674 
	C878.404236,555.763062 878.354370,552.900208 873.979065,549.961609 
	C867.488708,545.602417 860.871216,541.432495 853.685608,536.817810 
z" data-index="3" style="opacity: 1; visibility: visible;"></path>
<path fill="#020202" opacity="1.000000" stroke="none" d="
M153.883698,570.068787 
	C139.248306,564.647522 124.969704,559.362671 110.691101,554.077820 
	C110.320236,554.782776 109.949371,555.487732 109.578506,556.192688 
	C111.716721,557.739807 113.802933,559.365356 116.000931,560.822266 
	C150.984161,584.010681 186.187805,606.874084 220.902252,630.457642 
	C243.353745,645.710449 265.103882,661.996338 287.120117,677.886047 
	C288.059204,678.563843 288.963654,679.848938 289.126526,680.961975 
	C294.964264,720.861389 316.946045,750.784363 347.263428,775.674072 
	C379.670746,802.279602 417.184021,817.052551 458.134125,824.000000 
	C459.116791,824.166748 460.100555,824.338379 461.068939,824.570068 
	C461.366516,824.641235 461.614502,824.919861 462.316742,825.396423 
	C456.493256,829.677124 450.762695,833.790527 445.141571,838.048462 
	C439.110535,842.616821 433.196960,847.339966 427.204041,851.959045 
	C423.453033,854.850037 419.650085,857.673645 415.331573,860.934326 
	C413.770020,849.409302 412.565857,839.176697 410.914459,829.016785 
	C410.282593,825.129395 409.019623,821.222900 407.334167,817.661133 
	C405.484100,813.751526 401.678345,811.249329 397.500336,812.470337 
	C393.375946,813.675659 391.325043,817.360596 391.623810,822.075684 
	C392.715179,839.301636 393.670959,856.536255 394.705780,873.765930 
	C394.913055,877.216980 395.243073,880.660583 395.565491,884.725525 
	C382.246948,879.702454 369.875153,874.867188 357.386078,870.356812 
	C314.493286,854.866150 273.618713,835.231628 234.934601,811.064697 
	C184.048843,779.275208 139.806396,740.251648 105.797592,690.501038 
	C69.847694,637.910889 48.244438,579.899414 43.349407,516.188354 
	C40.914875,484.501770 46.029327,453.366943 53.389076,422.628479 
	C60.731808,391.961121 70.941849,362.232513 83.569565,333.336578 
	C84.224365,331.838165 84.941269,330.366852 86.145744,327.768951 
	C86.868004,333.268219 87.643906,337.582397 87.973839,341.930359 
	C92.023682,395.301056 113.937813,439.807434 152.878372,476.577545 
	C189.610855,511.262604 233.037430,533.254456 280.787262,547.966919 
	C294.248657,552.114563 307.351440,557.426025 321.968262,562.689697 
	C301.026550,588.689514 291.313843,617.527954 288.890381,650.156067 
	C246.656601,618.062195 202.606918,590.448547 153.883698,570.068787 
M278.698059,763.180176 
	C282.643127,760.694214 286.668335,758.325195 290.512115,755.691345 
	C294.900909,752.683960 299.378693,749.724854 303.354095,746.218933 
	C307.192657,742.833557 307.259552,736.404724 304.184967,732.023987 
	C301.328583,727.954163 297.052856,726.974854 291.982697,729.580994 
	C286.049744,732.630676 280.182312,735.820679 274.400757,739.148438 
	C268.160919,742.739807 262.053284,746.560791 255.301346,750.635681 
	C254.850754,742.565369 254.457611,735.524048 254.057526,728.358704 
	C255.408951,728.179443 256.229828,728.134827 257.020264,727.955872 
	C264.958923,726.158508 273.002289,724.694641 280.758606,722.302002 
	C282.989014,721.613953 285.831299,718.186646 285.769806,716.092346 
	C285.705658,713.907410 282.836761,711.198792 280.532227,709.850403 
	C278.064972,708.406982 274.857849,708.074036 271.917511,707.620911 
	C261.071869,705.949402 250.214828,704.340271 239.338028,702.887634 
	C233.661240,702.129456 228.999512,704.473755 230.017899,711.447205 
	C230.329544,713.581177 230.197830,715.776184 230.421280,717.927429 
	C232.325241,736.257141 234.259567,754.583679 236.194809,772.910156 
	C237.202789,782.455444 243.248611,785.563171 251.555695,780.504028 
	C260.515167,775.047729 269.265289,769.247803 278.698059,763.180176 
M168.119125,687.624512 
	C200.208984,673.106628 232.533508,676.000000 265.141937,686.919006 
	C264.808350,684.998535 264.496033,683.581604 263.615570,682.832886 
	C257.424133,677.567505 251.597015,671.665955 244.755936,667.410645 
	C222.563248,653.606140 198.624603,649.023071 173.005859,655.995789 
	C162.382492,658.887085 152.146118,662.605225 143.506470,669.810364 
	C137.132370,675.126160 130.211548,679.850098 124.260902,685.590820 
	C118.937141,690.726807 119.710022,697.298462 124.996620,701.045837 
	C129.241379,704.054749 133.480667,703.025269 137.768738,701.101013 
	C147.632523,696.674866 157.518524,692.298218 168.119125,687.624512 
M137.555466,594.952881 
	C129.716995,589.045776 121.914673,583.089966 114.028572,577.247131 
	C107.773651,572.612854 104.169426,574.095459 102.042870,581.753967 
	C100.708199,586.560486 99.122787,591.309570 97.405472,595.994873 
	C94.498627,603.925537 91.137146,611.698242 88.466286,619.703979 
	C86.512756,625.559509 89.723404,629.228394 95.729385,627.767151 
	C113.489845,623.446106 131.183334,618.829773 148.808731,613.985840 
	C154.172684,612.511658 154.771561,608.348083 150.449875,604.725037 
	C146.503403,601.416565 142.252258,598.471497 137.555466,594.952881 
M277.510376,591.999207 
	C281.705139,589.008118 285.946320,586.079529 290.083832,583.011230 
	C296.314819,578.390503 295.915192,575.227966 288.687073,572.233337 
	C275.806335,566.896851 262.885071,561.658142 249.988434,556.359863 
	C243.667465,553.763184 240.074234,556.278625 240.521744,563.063232 
	C241.097748,571.796265 241.712234,580.526672 242.307236,589.258484 
	C242.657562,594.399597 242.884247,599.552429 243.377335,604.679749 
	C244.097076,612.164185 247.546661,613.724609 253.521362,609.398438 
	C261.329132,603.744995 269.125488,598.075867 277.510376,591.999207 
M310.116913,763.197510 
	C310.084839,779.319885 309.949310,795.443359 310.127228,811.563416 
	C310.155304,814.110413 310.886169,817.832703 312.585999,818.850220 
	C314.334778,819.897217 318.091797,819.013184 320.235352,817.738586 
	C331.368561,811.118469 342.315308,804.178955 353.224457,797.190674 
	C357.879181,794.208923 358.115692,791.128662 353.710846,787.763367 
	C342.230225,778.992065 330.556885,770.472534 318.938110,761.882751 
	C315.994324,759.706360 313.055817,759.143005 310.116913,763.197510 
M189.878281,540.594116 
	C189.806290,538.264526 189.851837,535.924194 189.639252,533.607544 
	C189.102417,527.757385 186.236465,526.558777 181.333328,530.014221 
	C178.461975,532.037720 175.608597,534.097046 172.639694,535.969971 
	C165.273529,540.616882 157.738297,545.004272 150.486435,549.820374 
	C146.688507,552.342651 146.774170,555.982361 150.683594,558.086975 
	C161.662186,563.997375 172.730484,569.757141 183.934921,575.224854 
	C189.010818,577.701965 191.120911,576.080505 190.955093,570.516663 
	C190.667480,560.865723 190.256393,551.218445 189.878281,540.594116 
z" data-index="4" style="opacity: 1; visibility: visible;"></path>
<path fill="#010101" opacity="1.000000" stroke="none" d="
M670.768311,433.803925 
	C673.085632,429.917053 675.227600,426.353271 677.589661,422.423309 
	C700.552917,447.267029 728.221069,454.911316 759.520630,442.561249 
	C790.421997,430.368195 806.587646,406.299286 809.184998,372.612915 
	C828.539917,371.338928 846.960022,366.201874 864.275635,357.155762 
	C881.538147,348.137390 896.138977,335.702087 910.708252,322.267273 
	C909.019775,329.562317 907.645691,336.947540 905.583801,344.135468 
	C899.355225,365.849152 889.433350,385.981934 877.831360,405.224304 
	C872.627197,413.855530 866.423889,422.021790 859.774963,429.611450 
	C850.437988,440.269501 840.807495,450.798431 830.292542,460.260101 
	C819.944214,469.571747 808.806763,478.201752 797.163879,485.831024 
	C781.719116,495.951508 765.430054,504.783234 747.944275,511.087677 
	C734.070374,516.089783 720.238708,521.222717 706.261353,525.919678 
	C693.237976,530.296021 681.773499,537.181763 671.025269,546.425537 
	C662.686157,539.264099 653.463440,532.218323 649.913208,521.830627 
	C647.432129,514.571167 648.424255,505.685333 649.479004,497.740204 
	C652.462341,475.268158 659.556580,454.004578 670.768311,433.803925 
z" data-index="5" style="opacity: 1; visibility: visible;"></path>
<path fill="#020202" opacity="1.000000" stroke="none" d="
M233.717270,423.276703 
	C260.577942,450.048096 297.293976,455.825378 327.669830,437.822571 
	C334.301453,433.892212 340.058167,428.485657 346.559174,423.497040 
	C353.970337,434.545349 360.629181,446.740906 365.544098,459.830322 
	C372.389923,478.062134 377.631836,496.666595 378.091827,516.351257 
	C378.191803,520.630432 376.758362,524.046265 374.052795,527.137024 
	C369.182526,532.700745 364.453735,538.397034 359.385498,543.773621 
	C357.772430,545.484802 355.269958,546.357727 353.002045,547.717529 
	C337.003204,531.618225 316.296143,525.148315 295.796631,518.148254 
	C208.975632,488.500916 148.750656,431.793549 119.287537,344.011749 
	C116.968239,337.101654 115.553268,329.888062 114.165405,322.496094 
	C127.316566,336.388550 141.489853,348.715851 158.542511,357.410583 
	C175.647079,366.131836 193.623093,371.689575 213.200653,372.457367 
	C214.020920,391.945374 220.128220,408.971313 233.717270,423.276703 
z" data-index="6" style="opacity: 1; visibility: visible;"></path>
<path fill="#020202" opacity="1.000000" stroke="none" d="
M753.031738,281.990417 
	C807.374512,271.591248 860.257263,272.705933 911.972107,295.836304 
	C900.977234,310.260315 888.093628,320.669617 872.582214,328.167542 
	C847.889648,340.103333 821.660156,339.567932 795.305176,338.571503 
	C783.696106,338.132599 772.053711,336.870148 760.487183,337.373993 
	C738.488892,338.332367 718.056152,344.024841 699.743286,357.433777 
	C678.891968,372.701385 663.616577,392.262024 652.169922,414.896912 
	C644.808716,429.453094 639.038574,444.813690 632.534912,459.804932 
	C632.357727,460.213440 631.946594,460.520447 630.747559,461.927063 
	C630.281799,456.043060 629.666870,451.199860 629.551453,446.344788 
	C628.727478,411.710632 635.160156,378.666077 652.889771,348.572357 
	C672.886414,314.630371 704.237061,295.950409 741.033630,285.091522 
	C744.860962,283.962036 748.755737,283.061218 753.031738,281.990417 
z" data-index="7" style="opacity: 1; visibility: visible;"></path>
<path fill="#020202" opacity="1.000000" stroke="none" d="
M296.995697,344.032532 
	C287.915894,342.008270 279.273102,338.591675 270.535675,338.329742 
	C250.806168,337.738129 231.028259,338.630096 211.273117,339.059998 
	C191.485428,339.490601 172.039261,337.883118 153.596924,329.953583 
	C137.999283,323.247192 124.973099,313.097137 114.135452,300.087097 
	C113.310051,299.096252 112.687378,297.936554 111.758141,296.535126 
	C126.416290,289.259521 141.341614,283.618378 157.095978,280.742371 
	C206.115479,271.793823 254.266830,274.491669 300.994843,292.876740 
	C349.465515,311.947449 379.148956,347.148651 390.991974,397.797546 
	C395.269531,416.091339 397.081329,434.502045 395.950256,453.209137 
	C395.755463,456.430817 394.761963,459.604187 394.214600,462.404877 
	C388.780396,449.459412 383.985687,436.153931 377.747192,423.563873 
	C364.328125,396.482422 346.548828,372.702240 320.953033,355.840515 
	C313.673553,351.045013 305.275085,347.948059 296.995697,344.032532 
z" data-index="8" style="opacity: 1; visibility: visible;"></path>
<path fill="#020202" opacity="1.000000" stroke="none" d="
M111.674316,244.714539 
	C147.668152,186.391190 194.847275,140.170578 254.541382,106.677231 
	C286.046631,141.703766 300.071991,184.273438 308.546143,228.553345 
	C289.856049,225.907013 271.625641,222.802673 253.271744,220.873459 
	C234.742538,218.925812 216.268311,220.967255 197.908524,223.960953 
	C179.908142,226.896057 162.697311,232.069214 145.944305,239.436722 
	C129.493011,246.671570 116.189438,258.547791 101.656799,268.631256 
	C101.118088,268.147217 100.579376,267.663177 100.040672,267.179138 
	C103.855499,259.796234 107.670326,252.413345 111.674316,244.714539 
z" data-index="9" style="opacity: 1; visibility: visible;"></path>
<path fill="#020202" opacity="1.000000" stroke="none" d="
M734.098145,165.154068 
	C742.975586,143.489212 755.446411,124.526062 770.589600,106.969666 
	C836.617859,146.263840 889.897766,197.557205 922.976624,268.190887 
	C860.882141,219.122375 791.428894,210.588043 716.216858,229.822418 
	C719.954956,207.596771 725.784973,186.241989 734.098145,165.154068 
z" data-index="10" style="opacity: 1; visibility: visible;"></path>
<path fill="#030303" opacity="1.000000" stroke="none" d="
M603.666443,901.726868 
	C597.529175,905.242798 591.483215,908.194458 585.906555,911.860107 
	C561.873230,927.657715 540.642700,946.819092 520.441895,967.171204 
	C518.072876,969.557922 515.995117,972.233826 513.536621,975.057922 
	C483.325256,943.585876 450.996002,915.810852 412.119110,895.444641 
	C415.140045,893.174988 417.800903,891.248779 420.384338,889.223633 
	C445.020599,869.911865 469.633087,850.569763 494.306458,831.305603 
	C495.375061,830.471252 496.963409,829.917297 498.319153,829.897949 
	C507.978973,829.759766 517.641541,829.753296 527.302307,829.827087 
	C528.498474,829.836182 529.936401,830.262634 530.845093,831.005798 
	C544.099060,841.845154 557.153015,852.932434 570.517761,863.632080 
	C584.028503,874.448608 597.830261,884.901672 612.090271,895.968567 
	C609.198486,897.936096 606.586060,899.713623 603.666443,901.726868 
M539.143188,873.369873 
	C532.040527,867.069580 524.964844,860.738525 517.823059,854.482849 
	C514.513184,851.583496 511.242310,850.628357 507.343506,854.020081 
	C495.444061,864.371826 483.361023,874.512756 471.334412,884.718140 
	C466.697449,888.652893 466.232605,893.360168 470.512604,897.591736 
	C482.595154,909.537659 494.760437,921.401123 506.992676,933.193787 
	C511.226685,937.275574 512.988037,937.224487 517.113586,933.241455 
	C529.576843,921.208862 541.994263,909.128601 554.383484,897.019836 
	C558.612122,892.886902 558.601257,890.175354 554.133362,886.148560 
	C549.433960,881.913086 544.505066,877.932251 539.143188,873.369873 
z" data-index="11" style="opacity: 1; visibility: visible;"></path>
<path fill="#030303" opacity="1.000000" stroke="none" d="
M662.063416,750.070007 
	C657.960815,755.351929 652.538818,758.742798 646.882141,762.290527 
	C636.340576,768.902283 625.464294,774.706787 614.009705,779.383789 
	C604.428772,783.295776 594.734863,787.143127 584.774841,789.860474 
	C572.536499,793.199463 560.007629,795.536255 547.525818,797.889709 
	C542.658325,798.807556 537.544678,798.329651 532.599060,798.940125 
	C515.008240,801.111694 497.368958,800.019592 480.027771,797.766113 
	C441.938751,792.816406 405.908447,781.484802 374.279572,758.679016 
	C371.196411,756.455994 368.201965,754.109985 365.356659,750.956848 
	C367.099762,751.216064 368.929291,751.218750 370.573151,751.772583 
	C400.777557,761.948608 431.572388,763.150879 462.842743,758.211121 
	C465.254089,757.830261 468.195984,758.322815 470.388397,759.416992 
	C498.623932,773.509644 526.631897,773.968201 554.578979,758.633057 
	C556.192017,757.747925 558.401001,757.066711 560.123413,757.393494 
	C594.454407,763.906921 628.061768,761.432190 661.438538,749.784180 
	C661.903015,749.905945 662.063416,750.070007 662.063416,750.070007 
z" data-index="12" style="opacity: 1; visibility: visible;"></path>
<path fill="#030404" opacity="1.000000" stroke="none" d="
M180.884354,62.048214 
	C205.708237,69.506691 230.246780,84.537445 245.555634,101.634392 
	C238.248688,106.076408 230.999146,110.483528 223.817719,114.849243 
	C217.812653,109.809540 211.940048,104.702896 205.876495,99.834023 
	C196.825317,92.566162 186.524933,87.360954 175.340622,84.729370 
	C164.567429,82.194519 153.835007,82.061073 142.639725,85.597839 
	C132.755066,88.720558 124.304970,93.229965 117.297684,100.361534 
	C110.565773,107.212845 106.347282,115.623650 103.936852,125.103401 
	C98.811043,145.262222 104.540749,163.851501 111.564774,182.254745 
	C114.340889,189.528320 118.000130,196.462296 121.153053,203.596970 
	C121.699715,204.833984 122.407539,206.710220 121.877808,207.594269 
	C118.985916,212.420471 115.730507,217.028870 112.240234,222.250488 
	C92.589378,194.860672 78.449654,166.656357 77.941406,133.249924 
	C77.270660,89.163727 104.669930,66.266281 141.813080,60.029686 
	C154.784988,57.851608 167.717880,58.796837 180.884354,62.048214 
z" data-index="13" style="opacity: 1; visibility: visible;"></path>
<path fill="#030303" opacity="1.000000" stroke="none" d="
M867.760498,58.330963 
	C883.081543,58.950195 897.217407,62.295605 910.315796,69.523239 
	C930.989258,80.930717 941.678711,98.716377 945.128540,121.850700 
	C946.881287,133.604263 946.012207,145.179779 943.665894,156.323730 
	C940.586914,170.947357 935.984802,185.385925 927.450439,198.123428 
	C922.270630,205.854233 917.384827,213.781967 911.930359,222.303223 
	C908.152466,217.149673 904.783142,212.920715 901.925781,208.370255 
	C901.295715,207.366882 902.129883,205.035645 902.882812,203.634628 
	C911.750366,187.134537 919.287109,170.158310 922.529053,151.533295 
	C927.418884,123.440704 916.297180,99.710922 892.073608,88.189148 
	C879.079834,82.008789 865.536438,80.526192 851.041626,83.747398 
	C833.384521,87.671364 818.940674,96.455498 806.109070,108.625412 
	C804.104980,110.526199 802.015625,112.337044 800.061951,114.102493 
	C792.440918,109.502304 785.210266,105.137718 777.742737,100.630188 
	C802.219116,74.593216 830.677490,57.833160 867.760498,58.330963 
z" data-index="14" style="opacity: 1; visibility: visible;"></path>
<path fill="#050505" opacity="1.000000" stroke="none" d="
M280.413361,389.755188 
	C283.348694,383.029388 286.964478,380.530487 293.037415,380.741455 
	C298.226288,380.921661 302.441528,383.889709 304.123169,388.547150 
	C305.835815,393.290588 304.686218,399.763550 300.038910,402.410248 
	C296.815338,404.246155 292.006073,404.524109 288.214325,403.824127 
	C283.524292,402.958344 280.931702,398.873016 280.117615,394.090179 
	C279.900909,392.817047 280.216614,391.453278 280.413361,389.755188 
z" data-index="15" style="opacity: 1; visibility: visible;"></path>
<path fill="#050505" opacity="1.000000" stroke="none" d="
M713.987671,395.432861 
	C713.542908,386.016998 718.333801,380.573639 726.511292,380.712402 
	C733.716919,380.834656 738.712158,386.845978 738.032776,394.577515 
	C737.541992,400.162354 732.579773,405.243011 726.889465,405.986938 
	C722.856873,406.514130 716.320740,401.347870 713.987671,395.432861 
z" data-index="16" style="opacity: 1; visibility: visible;"></path>
<path fill="#0C0C0C" opacity="1.000000" stroke="none" d="
M613.570557,378.484985 
	C615.124451,366.188110 616.606750,354.340149 618.131348,342.153839 
	C622.715820,342.635681 626.751221,343.059784 632.116089,343.623596 
	C621.962952,364.187103 616.927612,385.629761 612.208496,407.264313 
	C612.208496,402.628571 612.040710,397.985107 612.254700,393.359253 
	C612.477539,388.541931 613.068787,383.741638 613.570557,378.484985 
z" data-index="17" style="opacity: 1; visibility: visible;"></path>
<path fill="#111110" opacity="1.000000" stroke="none" d="
M395.017944,346.072998 
	C395.273956,344.840515 395.542450,343.306519 396.093933,343.196991 
	C399.158386,342.588287 402.291473,342.325378 405.352173,341.950134 
	C408.441040,348.830566 413.041565,386.914124 412.734100,399.571991 
	C407.381500,383.385101 401.271301,364.907135 395.017944,346.072998 
z" data-index="18" style="opacity: 1; visibility: visible;"></path>
<path fill="#030303" opacity="1.000000" stroke="none" d="
M661.820190,749.826538 
	C662.255310,749.666809 662.773315,749.586487 663.291321,749.506104 
	C663.045410,749.723206 662.799500,749.940308 662.308472,750.113708 
	C662.063416,750.070007 661.903015,749.905945 661.820190,749.826538 
z" data-index="19"></path>
<path fill="#020202" opacity="1.000000" stroke="none" d="
M100.288498,268.195007 
	C100.585068,268.194092 100.659691,268.406219 100.734322,268.618347 
	C100.511726,268.548248 100.289131,268.478180 100.288498,268.195007 
z" data-index="20"></path>
<path fill="#FDFDFD" opacity="1.000000" stroke="none" d="
M514.000000,540.038025 
	C532.813293,539.705139 551.084656,540.378967 569.046448,544.182495 
	C590.993469,548.829895 610.277710,558.549438 621.742188,578.634827 
	C636.134460,603.849670 634.438782,629.372925 616.633118,652.091614 
	C592.169006,683.305969 558.537659,700.796265 519.660767,703.347656 
	C476.421692,706.185425 439.952332,687.814087 410.447662,656.438232 
	C397.081329,642.224243 391.805328,624.544678 394.286987,605.233521 
	C396.829742,585.446594 406.061646,569.356812 423.041901,557.944763 
	C434.419098,550.298401 446.916565,546.403320 460.209900,543.906311 
	C477.863708,540.590149 495.625671,539.787415 514.000000,540.038025 
M570.202698,588.007690 
	C572.647644,587.074707 575.092590,586.141663 578.481079,584.848633 
	C569.231018,580.731201 560.673096,579.041565 551.764465,579.032043 
	C525.654480,579.004150 499.544556,579.008850 473.434601,579.012817 
	C471.438538,579.013123 469.420410,578.936646 467.450378,579.189941 
	C460.335144,580.104919 453.121307,580.753296 446.277924,585.001709 
	C449.515991,586.166077 452.018829,587.277039 454.632660,587.968140 
	C464.337555,590.534424 474.118317,592.819519 483.797058,595.477844 
	C496.762909,599.038940 509.390106,604.538818 523.366821,600.156250 
	C531.460999,597.618225 539.749023,595.695068 547.960571,593.535950 
	C555.082275,591.663330 562.219116,589.848267 570.202698,588.007690 
M555.535278,634.209778 
	C555.203369,637.507324 554.469238,640.823547 554.621399,644.098633 
	C554.961182,651.409424 561.351318,655.083923 567.723633,651.701355 
	C573.474976,648.648560 579.185974,645.476440 584.665588,641.967773 
	C589.802734,638.678284 593.327087,633.814636 593.917297,627.686646 
	C594.953674,616.925781 583.987915,609.581299 572.766418,613.427551 
	C563.238708,616.693237 558.203247,624.012268 555.535278,634.209778 
M439.263275,613.106445 
	C428.331116,617.791443 426.097504,627.534729 434.086304,636.764404 
	C440.705078,644.411255 449.453644,648.928040 458.912781,651.903015 
	C464.683380,653.717896 470.159241,649.951599 469.844360,644.721802 
	C469.618469,640.969482 468.842346,637.198792 467.876556,633.551575 
	C464.172150,619.562317 453.480560,611.712280 439.263275,613.106445 
z" data-index="21" style="opacity: 1;"></path>
<path fill="#FDFDFD" opacity="1.000000" stroke="none" d="
M493.009155,392.977051 
	C491.323334,371.884460 489.687561,351.252106 487.994934,330.624390 
	C486.705688,314.912445 485.320190,299.208344 484.021545,283.497131 
	C482.657410,266.993103 481.324097,250.486435 480.019440,233.977585 
	C479.302643,224.907288 478.653076,215.831497 478.012390,206.755417 
	C477.718231,202.588730 479.665344,200.070023 483.873108,199.890991 
	C487.970734,199.716629 492.085541,199.988464 496.192902,199.993866 
	C510.517548,200.012665 524.842163,199.991104 539.166809,200.005203 
	C545.711792,200.011642 548.241028,202.585678 547.716980,209.191132 
	C545.372742,238.739929 542.998596,268.286713 540.506592,297.823364 
	C536.740723,342.458221 532.869751,387.084259 529.036743,431.713440 
	C528.723267,435.362915 528.373169,439.009399 528.014099,442.654724 
	C527.191956,451.000763 521.525818,456.553101 513.427490,456.970001 
	C504.984314,457.404633 499.203705,453.055878 498.100647,444.282227 
	C496.408478,430.822845 495.367401,417.281647 494.049072,403.775238 
	C493.712738,400.329742 493.372955,396.884552 493.009155,392.977051 
z" data-index="22" style="opacity: 1;"></path>
<path fill="#FDFDFD" opacity="1.000000" stroke="none" d="
M504.999939,172.824829 
	C498.000519,172.846848 491.498444,172.991470 485.002502,172.851089 
	C479.893036,172.740677 477.259277,170.182281 477.030579,165.163666 
	C475.986877,142.257706 474.959045,119.350487 474.087891,96.437546 
	C473.830200,89.660278 476.410156,87.097771 483.174377,87.164970 
	C489.417786,87.226982 495.658875,87.981415 501.897705,87.939430 
	C513.636230,87.860443 525.372192,87.417557 537.109863,87.151360 
	C539.106140,87.106087 541.135437,86.973602 543.097473,87.250420 
	C549.002441,88.083549 551.341858,90.605957 551.044739,96.556404 
	C549.897888,119.522720 548.619690,142.482971 547.261719,165.437881 
	C546.961426,170.514053 544.148865,172.800079 538.497375,172.841339 
	C527.498840,172.921631 516.499146,172.839447 504.999939,172.824829 
z" data-index="23" style="opacity: 1;"></path>
<path fill="#FBFBFB" opacity="1.000000" stroke="none" d="
M778.149963,782.305786 
	C774.440369,780.748718 770.925598,779.579224 767.888000,777.656128 
	C753.131104,768.313416 738.440674,758.861938 723.858154,749.249512 
	C718.117004,745.465088 716.871277,741.954590 718.417236,736.656921 
	C720.839050,728.358032 726.915710,725.313965 734.496338,729.513550 
	C744.085083,734.825623 753.247864,740.906372 762.596313,746.652649 
	C764.415466,747.770813 766.243103,748.875061 769.105835,750.618408 
	C769.105835,742.842407 769.105835,735.813354 769.105835,728.552734 
	C763.558533,727.618896 757.505249,726.698181 751.497070,725.542664 
	C748.901184,725.043457 746.352844,724.182739 743.864624,723.264893 
	C740.468018,722.011963 737.774475,720.420898 737.890991,715.857849 
	C738.009949,711.204407 741.730103,710.759338 744.319336,710.184387 
	C754.956909,707.821899 765.723450,706.030396 776.460632,704.131104 
	C779.887390,703.525024 783.359375,703.024597 786.829590,702.848511 
	C792.454346,702.562988 794.594299,704.574707 794.137024,710.249390 
	C793.174805,722.189270 791.887146,734.103149 790.699890,746.024475 
	C789.825989,754.799927 788.913818,763.571716 787.991638,772.342285 
	C787.276245,779.146301 784.938477,781.604248 778.149963,782.305786 
z" data-index="24" style="opacity: 1;"></path>
<path fill="#FBFBFB" opacity="1.000000" stroke="none" d="
M810.802246,654.517334 
	C843.672485,649.658569 871.729126,659.036499 895.879883,680.829712 
	C898.091614,682.825500 900.280701,684.977905 901.946533,687.421509 
	C906.183838,693.637024 902.934937,701.245361 895.470276,701.954834 
	C891.836670,702.300171 887.791016,701.570679 884.363281,700.227234 
	C872.758606,695.678772 861.456726,690.355347 849.839233,685.842651 
	C822.172241,675.095642 794.271362,675.216431 766.297119,684.810181 
	C764.026550,685.588867 761.697388,686.196777 759.145081,686.400085 
	C763.839050,678.327515 770.917114,673.027710 778.363220,668.096863 
	C788.191528,661.588623 798.844360,657.070312 810.802246,654.517334 
z" data-index="25" style="opacity: 1;"></path>
<path fill="#FBFBFB" opacity="1.000000" stroke="none" d="
M884.216187,616.794189 
	C880.934570,615.912903 877.895203,615.468262 875.223694,614.229919 
	C873.503357,613.432556 871.206360,611.489380 871.180359,610.024109 
	C871.146973,608.138367 872.712646,605.703308 874.317322,604.402954 
	C880.172058,599.658569 886.361389,595.329590 892.364197,590.764587 
	C898.512268,586.089050 904.492065,581.186890 910.729126,576.635437 
	C915.500366,573.153625 918.227295,573.853027 920.328064,579.302795 
	C925.403625,592.469238 930.335510,605.696655 935.001770,619.012878 
	C937.333130,625.665833 934.103394,629.101807 927.165466,627.461670 
	C912.943848,624.099731 898.793884,620.434631 884.216187,616.794189 
z" data-index="26"></path>
<path fill="#FBFBFB" opacity="1.000000" stroke="none" d="
M754.469421,598.522583 
	C747.355103,593.264038 740.442810,588.330750 733.708252,583.165710 
	C728.172485,578.919983 728.490784,575.206360 734.882568,572.530457 
	C743.916565,568.748535 753.189026,565.540222 762.317444,561.978577 
	C766.981018,560.158997 771.492249,557.941223 776.181946,556.198303 
	C781.570435,554.195557 784.280884,556.104553 783.928467,561.823547 
	C783.007263,576.774597 781.937622,591.718140 780.748230,606.650391 
	C780.237000,613.068542 776.648438,614.678406 771.205322,610.918030 
	C765.594788,607.041992 760.223999,602.818848 754.469421,598.522583 
z" data-index="27"></path>
<path fill="#F9F9F9" opacity="1.000000" stroke="none" d="
M714.603149,786.999878 
	C714.602844,795.476501 714.611145,803.453186 714.606018,811.429810 
	C714.600708,819.754883 711.157776,822.072571 704.166504,817.909851 
	C693.182068,811.369629 682.379456,804.516113 671.628845,797.594971 
	C667.293823,794.804016 667.490967,791.044189 671.417297,788.171448 
	C679.494446,782.261719 687.466919,776.208130 695.444824,770.164062 
	C698.821777,767.605835 701.934692,764.654602 705.497314,762.403931 
	C707.403564,761.199646 710.532288,760.030273 712.150879,760.816895 
	C713.700012,761.569885 714.652893,764.849915 714.740784,767.064026 
	C714.997437,773.530701 714.691345,780.019592 714.603149,786.999878 
z" data-index="28"></path>
<path fill="#F9F9F9" opacity="1.000000" stroke="none" d="
M853.996704,536.999939 
	C860.871216,541.432495 867.488708,545.602417 873.979065,549.961609 
	C878.354370,552.900208 878.404236,555.763062 873.825012,558.203674 
	C862.968323,563.989990 852.007324,569.594360 840.938904,574.963745 
	C835.671570,577.519043 833.952148,576.243713 834.009338,570.566528 
	C834.128418,558.749146 834.242920,546.930420 834.531433,535.116455 
	C834.705139,528.003235 837.641846,526.487183 843.691345,530.229126 
	C847.083435,532.327332 850.358032,534.615356 853.996704,536.999939 
z" data-index="29"></path>
<path fill="#FBFBFB" opacity="1.000000" stroke="none" d="
M278.402405,763.388977 
	C269.265289,769.247803 260.515167,775.047729 251.555695,780.504028 
	C243.248611,785.563171 237.202789,782.455444 236.194809,772.910156 
	C234.259567,754.583679 232.325241,736.257141 230.421280,717.927429 
	C230.197830,715.776184 230.329544,713.581177 230.017899,711.447205 
	C228.999512,704.473755 233.661240,702.129456 239.338028,702.887634 
	C250.214828,704.340271 261.071869,705.949402 271.917511,707.620911 
	C274.857849,708.074036 278.064972,708.406982 280.532227,709.850403 
	C282.836761,711.198792 285.705658,713.907410 285.769806,716.092346 
	C285.831299,718.186646 282.989014,721.613953 280.758606,722.302002 
	C273.002289,724.694641 264.958923,726.158508 257.020264,727.955872 
	C256.229828,728.134827 255.408951,728.179443 254.057526,728.358704 
	C254.457611,735.524048 254.850754,742.565369 255.301346,750.635681 
	C262.053284,746.560791 268.160919,742.739807 274.400757,739.148438 
	C280.182312,735.820679 286.049744,732.630676 291.982697,729.580994 
	C297.052856,726.974854 301.328583,727.954163 304.184967,732.023987 
	C307.259552,736.404724 307.192657,742.833557 303.354095,746.218933 
	C299.378693,749.724854 294.900909,752.683960 290.512115,755.691345 
	C286.668335,758.325195 282.643127,760.694214 278.402405,763.388977 
z" data-index="30"></path>
<path fill="#FBFBFB" opacity="1.000000" stroke="none" d="
M167.757324,687.763000 
	C157.518524,692.298218 147.632523,696.674866 137.768738,701.101013 
	C133.480667,703.025269 129.241379,704.054749 124.996620,701.045837 
	C119.710022,697.298462 118.937141,690.726807 124.260902,685.590820 
	C130.211548,679.850098 137.132370,675.126160 143.506470,669.810364 
	C152.146118,662.605225 162.382492,658.887085 173.005859,655.995789 
	C198.624603,649.023071 222.563248,653.606140 244.755936,667.410645 
	C251.597015,671.665955 257.424133,677.567505 263.615570,682.832886 
	C264.496033,683.581604 264.808350,684.998535 265.141937,686.919006 
	C232.533508,676.000000 200.208984,673.106628 167.757324,687.763000 
z" data-index="31" style="opacity: 1;"></path>
<path fill="#FBFBFB" opacity="1.000000" stroke="none" d="
M137.845428,595.159546 
	C142.252258,598.471497 146.503403,601.416565 150.449875,604.725037 
	C154.771561,608.348083 154.172684,612.511658 148.808731,613.985840 
	C131.183334,618.829773 113.489845,623.446106 95.729385,627.767151 
	C89.723404,629.228394 86.512756,625.559509 88.466286,619.703979 
	C91.137146,611.698242 94.498627,603.925537 97.405472,595.994873 
	C99.122787,591.309570 100.708199,586.560486 102.042870,581.753967 
	C104.169426,574.095459 107.773651,572.612854 114.028572,577.247131 
	C121.914673,583.089966 129.716995,589.045776 137.845428,595.159546 
z" data-index="32" style="opacity: 1;"></path>
<path fill="#FAFAFA" opacity="1.000000" stroke="none" d="
M277.218567,592.206299 
	C269.125488,598.075867 261.329132,603.744995 253.521362,609.398438 
	C247.546661,613.724609 244.097076,612.164185 243.377335,604.679749 
	C242.884247,599.552429 242.657562,594.399597 242.307236,589.258484 
	C241.712234,580.526672 241.097748,571.796265 240.521744,563.063232 
	C240.074234,556.278625 243.667465,553.763184 249.988434,556.359863 
	C262.885071,561.658142 275.806335,566.896851 288.687073,572.233337 
	C295.915192,575.227966 296.314819,578.390503 290.083832,583.011230 
	C285.946320,586.079529 281.705139,589.008118 277.218567,592.206299 
z" data-index="33"></path>
<path fill="#FBFBFB" opacity="1.000000" stroke="none" d="
M310.250519,762.789246 
	C313.055817,759.143005 315.994324,759.706360 318.938110,761.882751 
	C330.556885,770.472534 342.230225,778.992065 353.710846,787.763367 
	C358.115692,791.128662 357.879181,794.208923 353.224457,797.190674 
	C342.315308,804.178955 331.368561,811.118469 320.235352,817.738586 
	C318.091797,819.013184 314.334778,819.897217 312.585999,818.850220 
	C310.886169,817.832703 310.155304,814.110413 310.127228,811.563416 
	C309.949310,795.443359 310.084839,779.319885 310.250519,762.789246 
z" data-index="34" style="opacity: 1;"></path>
<path fill="#FAFAFA" opacity="1.000000" stroke="none" d="
M189.887680,541.081909 
	C190.256393,551.218445 190.667480,560.865723 190.955093,570.516663 
	C191.120911,576.080505 189.010818,577.701965 183.934921,575.224854 
	C172.730484,569.757141 161.662186,563.997375 150.683594,558.086975 
	C146.774170,555.982361 146.688507,552.342651 150.486435,549.820374 
	C157.738297,545.004272 165.273529,540.616882 172.639694,535.969971 
	C175.608597,534.097046 178.461975,532.037720 181.333328,530.014221 
	C186.236465,526.558777 189.102417,527.757385 189.639252,533.607544 
	C189.851837,535.924194 189.806290,538.264526 189.887680,541.081909 
z" data-index="35" style="opacity: 1;"></path>
<path fill="#FBFCFB" opacity="1.000000" stroke="none" d="
M539.409790,873.604980 
	C544.505066,877.932251 549.433960,881.913086 554.133362,886.148560 
	C558.601257,890.175354 558.612122,892.886902 554.383484,897.019836 
	C541.994263,909.128601 529.576843,921.208862 517.113586,933.241455 
	C512.988037,937.224487 511.226685,937.275574 506.992676,933.193787 
	C494.760437,921.401123 482.595154,909.537659 470.512604,897.591736 
	C466.232605,893.360168 466.697449,888.652893 471.334412,884.718140 
	C483.361023,874.512756 495.444061,864.371826 507.343506,854.020081 
	C511.242310,850.628357 514.513184,851.583496 517.823059,854.482849 
	C524.964844,860.738525 532.040527,867.069580 539.409790,873.604980 
M512.387268,880.408630 
	C510.318939,880.946106 508.083496,881.150452 506.215485,882.087341 
	C501.707764,884.348083 499.693237,889.265564 500.820892,894.318054 
	C501.940674,899.335327 505.913361,902.904663 510.831482,903.312439 
	C516.321533,903.767639 520.693481,901.350952 522.593262,896.810791 
	C525.834106,889.065552 522.130371,882.665955 512.387268,880.408630 
z" data-index="36" style="opacity: 1;"></path>
<path fill="#050505" opacity="1.000000" stroke="none" d="
M569.776001,588.007690 
	C562.219116,589.848267 555.082275,591.663330 547.960571,593.535950 
	C539.749023,595.695068 531.460999,597.618225 523.366821,600.156250 
	C509.390106,604.538818 496.762909,599.038940 483.797058,595.477844 
	C474.118317,592.819519 464.337555,590.534424 454.632660,587.968140 
	C452.018829,587.277039 449.515991,586.166077 446.277924,585.001709 
	C453.121307,580.753296 460.335144,580.104919 467.450378,579.189941 
	C469.420410,578.936646 471.438538,579.013123 473.434601,579.012817 
	C499.544556,579.008850 525.654480,579.004150 551.764465,579.032043 
	C560.673096,579.041565 569.231018,580.731201 578.481079,584.848633 
	C575.092590,586.141663 572.647644,587.074707 569.776001,588.007690 
z" data-index="37" style="opacity: 1; visibility: visible;"></path>
<path fill="#030404" opacity="1.000000" stroke="none" d="
M555.649292,633.816956 
	C558.203247,624.012268 563.238708,616.693237 572.766418,613.427551 
	C583.987915,609.581299 594.953674,616.925781 593.917297,627.686646 
	C593.327087,633.814636 589.802734,638.678284 584.665588,641.967773 
	C579.185974,645.476440 573.474976,648.648560 567.723633,651.701355 
	C561.351318,655.083923 554.961182,651.409424 554.621399,644.098633 
	C554.469238,640.823547 555.203369,637.507324 555.649292,633.816956 
z" data-index="38" style="opacity: 1; visibility: visible;"></path>
<path fill="#030404" opacity="1.000000" stroke="none" d="
M439.683777,613.025513 
	C453.480560,611.712280 464.172150,619.562317 467.876556,633.551575 
	C468.842346,637.198792 469.618469,640.969482 469.844360,644.721802 
	C470.159241,649.951599 464.683380,653.717896 458.912781,651.903015 
	C449.453644,648.928040 440.705078,644.411255 434.086304,636.764404 
	C426.097504,627.534729 428.331116,617.791443 439.683777,613.025513 
z" data-index="39" style="opacity: 1; visibility: visible;"></path>
<path fill="#050505" opacity="1.000000" stroke="none" d="
M512.766846,880.448181 
	C522.130371,882.665955 525.834106,889.065552 522.593262,896.810791 
	C520.693481,901.350952 516.321533,903.767639 510.831482,903.312439 
	C505.913361,902.904663 501.940674,899.335327 500.820892,894.318054 
	C499.693237,889.265564 501.707764,884.348083 506.215485,882.087341 
	C508.083496,881.150452 510.318939,880.946106 512.766846,880.448181 
z" data-index="40" style="opacity: 1; visibility: visible;"></path>
</svg>